<svg width="79" height="151" viewBox="0 0 79 151" fill="none" xmlns="http://www.w3.org/2000/svg">
<path d="M64.336 66.5925C72.3765 82.522 91.865 88.8886 107.865 80.8126C123.865 72.7366 130.317 53.2763 122.276 37.3468C114.236 21.4173 94.7474 15.0508 78.7476 23.1267C62.7478 31.2027 56.2955 50.6629 64.336 66.5925Z" fill="#F6B3B3"/>
<path d="M13.7101 80.5263C19.2049 91.4123 32.5229 95.7631 43.4569 90.2441C54.3909 84.7251 58.8003 71.4263 53.3055 60.5404C47.8108 49.6544 34.4927 45.3036 23.5587 50.8226C12.6248 56.3415 8.21541 69.6404 13.7101 80.5263Z" fill="#9E0000"/>
<path d="M53.694 126.661C58.7538 136.685 71.018 140.692 81.0867 135.609C91.1554 130.527 95.2158 118.281 90.1559 108.256C85.096 98.2319 72.8319 94.2254 62.7632 99.3076C52.6945 104.39 48.6341 116.636 53.694 126.661Z" fill="#EA4D4D"/>
</svg>
