<svg width="94" height="160" viewBox="0 0 94 160" fill="none" xmlns="http://www.w3.org/2000/svg">
<path d="M5.61768 95.3924C19.6458 84.3647 22.0387 64.0027 10.9623 49.9127C-0.114054 35.8227 -20.4653 33.3403 -34.4934 44.368C-48.5215 55.3957 -50.9144 75.7577 -39.838 89.8477C-28.7616 103.938 -8.41044 106.42 5.61768 95.3924Z" fill="#F6B3B3"/>
<path d="M23.8044 145.812C33.391 138.276 35.0262 124.361 27.4568 114.732C19.8874 105.103 5.97977 103.407 -3.6068 110.943C-13.1934 118.479 -14.8286 132.394 -7.25924 142.023C0.310156 151.652 14.2178 153.348 23.8044 145.812Z" fill="#EA4D4D"/>
<path d="M60.1531 104.326C68.981 97.3861 70.4869 84.5724 63.5165 75.7055C56.5461 66.8386 43.7391 65.2764 34.9111 72.2162C26.0832 79.1559 24.5774 91.9697 31.5477 100.837C38.5181 109.703 51.3252 111.266 60.1531 104.326Z" fill="#9E0000"/>
</svg>
