<svg width="70" height="70" viewBox="0 0 70 70" fill="none" xmlns="http://www.w3.org/2000/svg">
<g clip-path="url(#clip0_1894_70327)">
<path d="M35 70C54.33 70 70 54.33 70 35C70 15.67 54.33 0 35 0C15.67 0 0 15.67 0 35C0 54.33 15.67 70 35 70Z" fill="#50B748"/>
<path d="M42.3642 69.1741C43.0354 69.044 43.7026 68.8942 44.365 68.725C45.4882 68.411 46.595 68.0411 47.6813 67.6166C48.7689 67.1957 49.8348 66.7207 50.875 66.1933C51.9155 65.6639 52.9288 65.0827 53.9113 64.4521C54.8925 63.8213 55.8416 63.1418 56.755 62.4162C57.67 61.6896 58.548 60.9177 59.3858 60.1033C60.2223 59.2909 61.0176 58.4372 61.7688 57.5454C62.5206 56.6528 63.2273 55.7232 63.8862 54.76C64.545 53.7984 65.1554 52.8045 65.715 51.7821C66.2747 50.7581 66.7828 49.7068 67.2375 48.6321C67.6926 47.5571 68.0937 46.46 68.4392 45.345C68.735 44.3687 68.988 43.38 69.1975 42.3816L48.4017 21.5887C46.6455 19.8247 44.5578 18.4255 42.2587 17.4714C39.9596 16.5173 37.4946 16.0273 35.0054 16.0296C32.514 16.0268 30.0467 16.5166 27.7452 17.4706C25.4437 18.4246 23.3534 19.8242 21.5946 21.5887C19.8314 23.3481 18.4325 25.4379 17.478 27.7387C16.5235 30.0394 16.0322 32.5058 16.0322 34.9966C16.0322 37.4875 16.5235 39.9539 17.478 42.2546C18.4325 44.5553 19.8314 46.6452 21.5946 48.4046L42.3642 69.1741Z" fill="#10A711"/>
<path d="M35.003 16.0327C39.8505 16.0327 44.698 17.8848 48.408 21.5919C50.1712 23.3513 51.5701 25.4411 52.5246 27.7418C53.4791 30.0426 53.9704 32.509 53.9704 34.9998C53.9704 37.4907 53.4791 39.957 52.5246 42.2578C51.5701 44.5585 50.1712 46.6484 48.408 48.4077C46.6486 50.171 44.5588 51.5699 42.258 52.5243C39.9573 53.4788 37.4909 53.9701 35.0001 53.9701C32.5092 53.9701 30.0428 53.4788 27.7421 52.5243C25.4414 51.5699 23.3515 50.171 21.5922 48.4077C19.8289 46.6484 18.43 44.5585 17.4756 42.2578C16.5211 39.957 16.0298 37.4907 16.0298 34.9998C16.0298 32.509 16.5211 30.0426 17.4756 27.7418C18.43 25.4411 19.8289 23.3513 21.5922 21.5919C23.351 19.8273 25.4412 18.4278 27.7427 17.4738C30.0442 16.5197 32.5116 16.03 35.003 16.0327ZM43.6363 29.1636C43.3602 29.19 43.0973 29.2942 42.878 29.464L32.2205 37.4556L27.2826 32.5206C26.2122 31.4065 24.1034 33.5123 25.2205 34.5827L31.0538 40.4161C31.3067 40.6552 31.6345 40.7995 31.9817 40.8245C32.3288 40.8495 32.6739 40.7536 32.9584 40.5531L44.6251 31.8031C45.6051 31.0886 45.0013 29.184 43.788 29.1665C43.7384 29.1639 43.6888 29.1639 43.6392 29.1665L43.6363 29.1636Z" fill="white"/>
</g>
<defs>
<clipPath id="clip0_1894_70327">
<rect width="70" height="70" fill="white"/>
</clipPath>
</defs>
</svg>
