<svg width="27" height="27" viewBox="0 0 27 27" fill="none" xmlns="http://www.w3.org/2000/svg">
<path d="M3.64989 6.83687C4.35571 6.34354 5.4197 6.43815 6.05344 6.96152L5.32659 5.90503C4.74166 5.07081 4.95116 4.16826 5.78613 3.58257C6.6211 2.99914 8.98712 4.56772 8.98712 4.56772C8.39693 3.72524 8.50731 2.65749 9.34979 2.06655C10.1923 1.47787 11.3546 1.68136 11.9448 2.52534L19.7689 13.5782L18.7718 23.2458L10.4498 20.2107L3.1911 9.44842C2.59566 8.60068 2.8014 7.43156 3.64989 6.83687Z" fill="#EF9645"/>
<path d="M2.02351 12.9856C2.02351 12.9856 1.17352 11.7467 2.41321 10.8974C3.65141 10.0482 4.50065 11.2864 4.50065 11.2864L8.4435 17.0366C8.57941 16.8098 8.72808 16.5861 8.89403 16.3653L3.42164 8.38575C3.42164 8.38575 2.5724 7.14755 3.81135 6.29831C5.04954 5.44907 5.89878 6.68727 5.89878 6.68727L11.046 14.1938C11.2375 14.0376 11.4335 13.8807 11.6355 13.7267L5.66826 5.02332C5.66826 5.02332 4.81902 3.78513 6.05797 2.93589C7.29616 2.08665 8.1454 3.32484 8.1454 3.32484L14.1126 12.0267C14.3319 11.8923 14.5489 11.776 14.7666 11.6528L9.18912 3.51932C9.18912 3.51932 8.33988 2.28112 9.57807 1.43188C10.8163 0.582643 11.6655 1.82084 11.6655 1.82084L17.5629 10.4214L18.4594 11.7294C14.7441 14.2779 14.3904 19.0722 16.5132 22.1681C16.9374 22.7875 17.5569 22.3633 17.5569 22.3633C15.0092 18.6472 15.7871 14.4716 19.5032 11.9239L18.4076 6.44098C18.4076 6.44098 17.9984 4.99629 19.4423 4.58631C20.887 4.17709 21.297 5.62177 21.297 5.62177L22.5622 9.37916C23.0638 10.8689 23.5977 12.3534 24.3043 13.7575C26.2993 17.7221 25.1077 22.6494 21.3458 25.2301C17.2423 28.0437 11.6325 26.9977 8.81819 22.8949L2.02351 12.9856Z" fill="#FFDC5D"/>
<path d="M9.01051 24.0279C6.00701 24.0279 2.97197 20.9929 2.97197 17.9894C2.97197 17.5742 2.66786 17.2385 2.25263 17.2385C1.83739 17.2385 1.47021 17.5742 1.47021 17.9894C1.47021 22.4947 4.50526 25.5297 9.01051 25.5297C9.42575 25.5297 9.76139 25.1625 9.76139 24.7473C9.76139 24.3321 9.42575 24.0279 9.01051 24.0279Z" fill="#5DADEC"/>
<path d="M5.25613 25.4982C3.0035 25.4982 1.50175 23.9965 1.50175 21.7439C1.50175 21.3286 1.16611 20.993 0.750876 20.993C0.335642 20.993 0 21.3286 0 21.7439C0 24.7474 2.25263 27 5.25613 27C5.67137 27 6.00701 26.6644 6.00701 26.2491C6.00701 25.8339 5.67137 25.4982 5.25613 25.4982ZM18.021 1.47021C17.6065 1.47021 17.2701 1.80661 17.2701 2.22109C17.2701 2.63557 17.6065 2.97197 18.021 2.97197C21.0245 2.97197 24.028 5.66686 24.028 8.97897C24.028 9.39346 24.3644 9.72985 24.7789 9.72985C25.1934 9.72985 25.5298 9.39346 25.5298 8.97897C25.5298 4.83864 22.5263 1.47021 18.021 1.47021Z" fill="#5DADEC"/>
<path d="M21.7753 0C21.3608 0 21.0244 0.304856 21.0244 0.719339C21.0244 1.13382 21.3608 1.50175 21.7753 1.50175C24.0279 1.50175 25.4981 3.17245 25.4981 5.2246C25.4981 5.63908 25.8653 5.97547 26.2805 5.97547C26.6958 5.97547 26.9999 5.63908 26.9999 5.2246C26.9999 2.34348 24.7788 0 21.7753 0Z" fill="#5DADEC"/>
</svg>
