<svg width="300" height="194" viewBox="0 0 300 194" fill="none" xmlns="http://www.w3.org/2000/svg">
<path d="M26.1776 72.4146H9.90771V77.6166H26.1776V72.4146Z" fill="#EBEBEB"/>
<path d="M17.1006 84.1762L9.00737 84.311L4.92365 84.3668L0.816735 84.39H0.60791V84.1762V78.9741V78.7417H0.839939L8.97489 78.7742L13.0447 78.8114L17.1098 78.8626H17.2212V78.9695L17.1006 84.1762ZM17.1006 84.1762L16.9892 78.9741L17.1006 79.0857L13.0354 79.1369L8.96561 79.174L0.830658 79.2066L1.06269 78.9741V84.1762L0.849219 83.9623L4.88189 83.9856L8.92848 84.0414L17.1006 84.1762Z" fill="#EBEBEB"/>
<path d="M270.388 65.0138L278.467 64.879L282.556 64.8232H286.658H286.867V65.0324V70.2345V70.4716H286.635L278.5 70.4437L274.435 70.4018L270.365 70.3507H270.272V70.2391L270.388 65.0138ZM270.388 65.0138L270.5 70.2159L270.388 70.1089L274.449 70.0392L278.514 69.9974L286.649 69.9648L286.417 70.1973V64.9952L286.63 65.2091H282.598L278.551 65.1533L270.388 65.0138Z" fill="#EBEBEB"/>
<path d="M279.465 58.4543L287.545 58.3195L291.628 58.2637H295.735H295.944V58.4729V63.6749V63.912H295.712L287.577 63.8841L283.507 63.8423L279.442 63.7911H279.331V63.6796L279.465 58.4543ZM279.465 58.4543L279.577 63.6563L279.465 63.5494L283.531 63.4982L287.6 63.4564L295.735 63.4239L295.503 63.6563V58.4543L295.717 58.6681H291.684L287.637 58.6123L279.465 58.4543Z" fill="#EBEBEB"/>
<path d="M35.2502 84.1762L27.171 84.311L23.0872 84.3668L18.985 84.39H18.7529V84.1762V78.9741V78.7417H18.9896L27.1199 78.7742L31.1897 78.8114L35.2549 78.8626H35.3662V78.9695L35.2502 84.1762ZM35.2502 84.1762L35.1388 78.9741L35.2502 79.0857L31.1851 79.1369L27.1153 79.174L18.985 79.2066L19.2123 78.9741V84.1762L18.985 83.9856L23.013 84.0088L27.0596 84.0646L35.2502 84.1762Z" fill="#EBEBEB"/>
<path d="M130.247 65.2046H146.517V60.0026H130.247V65.2046Z" fill="#EBEBEB"/>
<path d="M139.324 53.443L147.403 53.3082L151.492 53.2524H155.594H155.807V53.4663V58.6683V58.9008H155.575L147.44 58.8682L143.375 58.831L139.305 58.7799H139.194V58.673L139.324 53.443ZM139.324 53.443L139.435 58.6451L139.324 58.5335L143.394 58.4824L147.459 58.4452L155.594 58.4126L155.362 58.6451L155.385 53.443L155.594 53.6569H151.566L147.515 53.6011L139.324 53.443Z" fill="#EBEBEB"/>
<path d="M121.175 53.443L129.254 53.3082L133.343 53.2524H137.445H137.654V53.4663V58.6683V58.9008H137.422L129.287 58.8682L125.222 58.831L121.152 58.7799H121.041V58.673L121.175 53.443ZM121.175 53.443L121.286 58.6451L121.175 58.5335L125.245 58.4824L129.31 58.4452L137.445 58.4126L137.213 58.6451V53.443L137.426 53.6569H133.394L129.347 53.6011L121.175 53.443Z" fill="#EBEBEB"/>
<path d="M229.328 8.85127L221.249 8.98608L217.165 9.04187H213.058H212.85V8.83267L212.826 3.63065V3.39355H213.058L221.193 3.42145L225.263 3.46329L229.328 3.51442H229.435V3.626L229.328 8.85127ZM229.328 8.85127L229.217 3.64924L229.328 3.75616L225.263 3.8073L221.193 3.84914L213.058 3.88168L213.29 3.64924V8.85127L213.077 8.63742H217.11L221.156 8.69321L229.328 8.85127Z" fill="#EBEBEB"/>
<path d="M238.405 10.2085H222.135V15.4105H238.405V10.2085Z" fill="#EBEBEB"/>
<path d="M17.1006 8.85566L9.00737 8.99048L4.92365 9.04626H0.816735H0.60791V8.83242V3.63039V3.39795H0.839939L8.97489 3.43049L13.0447 3.46768L17.1098 3.51882H17.2212V3.63039L17.1006 8.85566ZM17.1006 8.85566L16.9892 3.65363L17.1006 3.7652L13.0354 3.81169L8.96561 3.85353L0.830658 3.88607L1.06269 3.65363V8.85566L0.849219 8.64182H4.88189L8.92848 8.6976L17.1006 8.85566Z" fill="#EBEBEB"/>
<path d="M157.822 127.596L165.901 127.457L169.989 127.401H174.091H174.3V127.615L174.323 132.817V133.049H174.091L165.957 133.017L161.891 132.975L157.822 132.924H157.71V132.798L157.822 127.596ZM157.822 127.596L157.933 132.798L157.822 132.687L161.891 132.635L165.957 132.598L174.091 132.566L173.859 132.798V127.596L174.073 127.805H170.04L165.994 127.75L157.822 127.596Z" fill="#EBEBEB"/>
<path d="M39.4864 172.88H55.7563V167.678H39.4864V172.88Z" fill="#EBEBEB"/>
<path d="M283.062 172.88H299.332V167.678H283.062V172.88Z" fill="#EBEBEB"/>
<path d="M238.401 150.748H254.671V145.546H238.401V150.748Z" fill="#EBEBEB"/>
<path d="M247.478 138.986L255.557 138.851L259.645 138.795H263.748H263.957V139.009L263.98 144.211V144.444H263.748L255.613 144.411L251.548 144.374L247.478 144.323H247.366V144.211L247.478 138.986ZM247.478 138.986L247.589 144.188L247.478 144.076L251.548 144.025L255.613 143.988L263.748 143.956L263.516 144.188V138.986L263.729 139.2H259.696L255.65 139.144L247.478 138.986Z" fill="#EBEBEB"/>
<path d="M225.881 102.581C225.881 102.581 221.908 104.031 220.595 104.649C219.282 105.268 215.889 108.368 215.43 110.367C214.971 112.366 212.497 116.09 211.253 116.555C210.01 117.02 208.469 117.991 205.852 118.586C203.234 119.181 196.807 119.488 195.002 120.572C193.197 121.655 192.009 121.752 190.9 123.974C189.791 126.197 190.849 136.838 188.473 138.985C186.097 141.133 185.364 139.125 184.111 142.523C182.858 145.922 164.973 156.935 164.578 158.153C164.184 159.371 165.943 164.596 165.943 164.596L166.407 174.005L170.268 178.356H225.881V102.581Z" fill="#EBEBEB"/>
<path d="M217.509 109.907C216.395 108.648 215.286 107.379 214.2 106.095C213.114 104.812 212.015 103.529 210.952 102.232L211.087 102.307L207.94 101.939C206.891 101.819 205.843 101.674 204.799 101.54L201.657 101.135L198.52 100.694H198.39V100.573C198.39 99.8242 198.39 99.0757 198.441 98.3319V98.3737C198.028 97.5602 197.615 96.7513 197.211 95.9331C197.675 96.7141 198.139 97.4998 198.603 98.2854V98.3133C198.631 99.0571 198.64 99.8056 198.654 100.554L198.529 100.41L201.68 100.745L204.826 101.112C205.875 101.237 206.924 101.349 207.973 101.484L211.114 101.893H211.198L211.249 101.958C212.316 103.26 213.36 104.58 214.4 105.9C215.439 107.22 216.493 108.564 217.509 109.907Z" fill="#EBEBEB"/>
<path d="M209.17 101.86C207.931 100.275 206.743 98.6522 205.55 97.0298L205.508 96.9693V96.895L205.898 93.7617C206.028 92.7157 206.153 91.6697 206.306 90.6283L206.747 87.4997L207.211 84.3803V84.4733C206.891 83.9805 206.585 83.4831 206.283 82.9857C205.981 82.4883 205.661 81.9908 205.355 81.4888C205.712 81.9537 206.056 82.4185 206.404 82.8834C206.752 83.3483 207.095 83.8132 207.434 84.306L207.462 84.3431V84.3943L207.109 87.5369L206.719 90.6702C206.594 91.7162 206.446 92.7575 206.297 93.7988L205.833 96.9275L205.8 96.7927C206.979 98.4802 208.088 100.154 209.17 101.86Z" fill="#EBEBEB"/>
<path d="M164.588 158.153C162.673 156.721 160.764 155.274 158.861 153.811C156.963 152.351 155.065 150.892 153.186 149.409L153.153 149.385V149.348C152.002 147.377 150.833 145.415 149.705 143.435L146.294 137.498L146.243 137.41L146.285 137.322L148.721 131.869L149.97 129.149L151.232 126.434L150.1 129.223L148.958 131.989L146.638 137.508V137.326L150.081 143.207C151.237 145.178 152.36 147.163 153.501 149.139L153.45 149.078C155.306 150.566 157.186 152.077 159.042 153.588C160.898 155.099 162.75 156.619 164.588 158.153Z" fill="#EBEBEB"/>
<path d="M150.081 143.667C150.146 143.286 150.239 142.914 150.313 142.533C150.387 142.152 150.494 141.789 150.596 141.417C150.791 140.678 151.009 139.943 151.241 139.214V139.279C151.235 137.881 151.312 136.483 151.473 135.095C151.63 136.484 151.706 137.881 151.701 139.279V139.307V139.339C151.473 140.074 151.237 140.799 150.967 141.519C150.837 141.882 150.698 142.24 150.559 142.598C150.42 142.956 150.248 143.318 150.081 143.667Z" fill="#EBEBEB"/>
<path d="M224.159 105.31H224.001L219.523 105.347L219.24 105.57L223.843 105.612H225.88V105.3L224.159 105.31Z" fill="#DBDBDB"/>
<path d="M224.177 110.581H224.085V110.66L224.001 110.581H224.085L224.006 105.635L223.927 110.484V110.739H224.187H225.89V110.549L224.177 110.581ZM224.177 105.468L225.894 105.491V105.444L224.177 105.468Z" fill="#DBDBDB"/>
<path d="M224.164 105.612V105.3H224.006C222.525 105.3 221.045 105.3 219.565 105.3L219.528 105.324L219.245 105.547L219.217 105.57C220.764 105.57 222.31 105.57 223.857 105.57V105.412L224.01 105.565H223.867V110.437H224.038L223.867 110.609V110.484L216.066 110.507H215.43C215.43 110.6 215.374 110.698 215.342 110.8H216.066L224.038 110.823H224.215V110.544L224.164 105.612Z" fill="#DBDBDB"/>
<path d="M224.159 115.714H224.001L216.043 115.783H215.95V115.862L215.871 115.783H215.95L215.876 110.837L215.801 115.709V115.965H216.061L223.862 116.035H225.899V115.723L224.159 115.714ZM224.159 110.558H223.811L216.01 110.66L224.024 110.763H224.159H225.862V110.521L224.159 110.558ZM215.857 110.814L215.783 115.686V115.756H215.945L215.857 110.814Z" fill="#DBDBDB"/>
<path d="M224.177 120.986H224.085V121.065L224.001 120.986H224.085L224.006 116.039L223.936 120.911V121.167H224.196H225.899V120.976L224.177 120.986ZM224.177 115.872L225.894 115.895V115.849L224.177 115.872Z" fill="#DBDBDB"/>
<path d="M224.164 116.016V115.704H224.006C221.352 115.704 218.688 115.704 216.047 115.76H215.699L212.247 115.806C212.21 115.844 212.173 115.885 212.135 115.918L215.917 115.964H216.047C218.655 115.997 221.254 116.02 223.848 116.02V115.862L224.001 116.016H223.867V120.888H224.038L223.867 121.06V120.888L216.066 120.911H215.908L207.945 120.981H207.852V121.06L207.773 120.981H207.852L207.806 118.052L207.736 118.075L207.694 120.911V121.166H207.95L215.75 121.236H216.071L224.043 121.259H224.219V120.981L224.164 116.016Z" fill="#DBDBDB"/>
<path d="M224.159 126.118H224.001L216.043 126.183H215.95V126.29L215.871 126.206H215.95L215.876 121.26L215.801 126.131V126.387H216.061L223.862 126.457H225.899V126.145L224.159 126.118ZM224.159 120.962H223.811L216.01 121.064L224.024 121.167H224.159H225.862V120.925L224.159 120.962ZM215.857 121.218L215.783 126.09V126.159H215.945L215.857 121.218ZM224.159 121.148H223.899V120.962H223.806L216.005 121.064L224.02 121.167H224.154H225.857L224.159 121.148Z" fill="#DBDBDB"/>
<path d="M224.177 131.404H224.085V131.487L224.001 131.404H224.085L224.006 126.457L223.936 131.329V131.585H224.196H225.899V131.39L224.177 131.404ZM224.177 126.29L225.894 126.313V126.267L224.177 126.29Z" fill="#DBDBDB"/>
<path d="M224.164 126.42V126.108H224.006C221.351 126.108 218.688 126.132 216.047 126.164H215.699L207.898 126.266L215.917 126.369H216.047C218.655 126.401 221.254 126.425 223.848 126.425V126.29L224.001 126.443H223.867V131.315H224.038L223.969 131.385L223.867 131.487V131.315L216.066 131.338H215.908L207.945 131.403H207.852V131.487L207.773 131.403H207.852L207.778 126.457L207.703 131.329V131.585H207.959L215.759 131.654H216.08H224.052H224.229V131.376L224.164 126.42Z" fill="#DBDBDB"/>
<path d="M224.159 136.517H224.001L216.043 136.582H215.95V136.666L215.871 136.582H215.95L215.876 131.636L215.792 136.517V136.773H216.052L223.853 136.842H225.89V136.517H224.159ZM224.159 131.361H223.811L216.01 131.464L224.024 131.566H224.159H225.862V131.324L224.159 131.361ZM215.857 131.617L215.792 136.517V136.587H215.954L215.857 131.617ZM224.159 131.547H223.899V131.361H223.806L216.005 131.464L224.02 131.566H224.154H225.857L224.159 131.547Z" fill="#DBDBDB"/>
<path d="M224.177 141.789H224.085V141.872L224.001 141.789H224.085L224.006 136.842L223.936 141.714V141.97H224.196H225.899V141.775L224.177 141.789ZM224.177 136.675L225.894 136.698V136.652L224.177 136.675Z" fill="#DBDBDB"/>
<path d="M224.164 136.824V136.518H224.006C221.351 136.518 218.688 136.541 216.047 136.573H215.699L207.898 136.676L215.917 136.778H216.047C218.655 136.81 221.254 136.834 223.848 136.834V136.676L224.001 136.829H223.867V141.701H224.038L223.969 141.771L223.876 141.864V141.692L216.075 141.715H215.917L207.954 141.78H207.861V141.864L207.782 141.78H207.861L207.787 136.834L207.713 141.706V141.961H207.968L215.769 142.031H216.089H224.061H224.238V141.752L224.164 136.824Z" fill="#DBDBDB"/>
<path d="M224.159 146.926H224.001L216.043 146.991H215.95V147.075L215.871 146.991H215.95L215.876 142.045L215.801 146.917V147.173H216.061L223.867 147.21H225.904V146.898L224.159 146.926ZM224.159 141.771H223.811L216.01 141.873L224.024 141.975H224.159H225.862V141.733L224.159 141.771ZM215.857 142.026L215.783 146.898V146.968H215.945L215.857 142.026ZM224.159 141.957H223.899V141.771H223.806L216.005 141.873L224.02 141.975H224.154H225.857L224.159 141.957Z" fill="#DBDBDB"/>
<path d="M224.177 152.193H224.085V152.277L224.001 152.193H224.085L224.006 147.21L223.936 152.082V152.337H224.196H225.899V152.142L224.177 152.193ZM224.177 147.079L225.894 147.103V147.056L224.177 147.079Z" fill="#DBDBDB"/>
<path d="M224.164 147.209V146.898H224.006C221.351 146.898 218.688 146.921 216.047 146.954H215.699L207.898 147.056L215.917 147.158H216.047C218.655 147.191 221.254 147.214 223.848 147.214V147.056L224.001 147.209H223.867V152.081H224.038L223.969 152.151L223.876 152.244V152.072L216.075 152.095H215.917L207.954 152.16H207.861V152.244L207.782 152.16H207.861L207.741 147.209L207.666 152.081V152.337H207.922L215.722 152.407H216.043H224.015H224.191V152.128L224.164 147.209Z" fill="#DBDBDB"/>
<path d="M224.159 157.33H224.001L216.043 157.395H215.95V157.479L215.871 157.395H215.95L215.876 152.449L215.801 157.321V157.576H216.061L223.862 157.641H225.899V157.335L224.159 157.33ZM224.159 152.174H223.811L216.01 152.277L224.024 152.379H224.159H225.862V152.137L224.159 152.174ZM215.857 152.43L215.783 157.302V157.372H215.945L215.857 152.43ZM224.159 152.36H223.899V152.174H223.806L216.005 152.277L224.02 152.379H224.154H225.857V152.356L224.159 152.36Z" fill="#DBDBDB"/>
<path d="M224.177 162.597H224.085V162.68L224.001 162.597H224.085L224.006 157.646L223.936 162.518V162.773H224.196H225.899V162.578L224.177 162.597ZM224.177 157.483L225.894 157.506V157.437L224.177 157.483Z" fill="#DBDBDB"/>
<path d="M224.164 157.628V157.321H224.006C221.351 157.321 218.688 157.344 216.047 157.377H215.699L207.898 157.479L215.917 157.581H216.047C218.655 157.614 221.254 157.637 223.848 157.637V157.479L224.001 157.632H223.867V162.504H224.038L223.969 162.574L223.876 162.667V162.495H216.075H215.917L207.954 162.56H207.861V162.644L207.782 162.56H207.861L207.782 157.609L207.708 162.481V162.737H207.963L215.764 162.802H216.084L224.057 162.83H224.233V162.551L224.164 157.628Z" fill="#DBDBDB"/>
<path d="M224.159 167.734H224.001L216.042 167.799H215.95V167.883L215.871 167.799H215.95L215.871 162.848L215.796 167.72V167.976H216.056L223.857 168.041H225.894V167.734H224.159ZM224.159 162.579H223.811L216.01 162.681L224.024 162.783H224.159H225.862V162.551L224.159 162.579ZM215.852 162.83L215.778 167.702V167.771H215.94L215.852 162.83ZM224.159 162.765H223.899V162.579H223.806L216.005 162.681L224.02 162.783H224.154H225.857V162.76L224.159 162.765Z" fill="#DBDBDB"/>
<path d="M224.177 173.001H224.085V173.085L224.001 173.001H224.085L224.006 168.05L223.936 172.922V173.178H224.196H225.899V172.982L224.177 173.001ZM224.177 167.887H225.894V167.841L224.177 167.887Z" fill="#DBDBDB"/>
<path d="M224.164 168.032V167.725H224.006C221.351 167.725 218.688 167.748 216.047 167.781H215.699L207.898 167.883L215.917 167.985H216.047C218.655 168.018 221.254 168.041 223.848 168.041V167.883L224.001 168.037H223.867V172.909H224.038L223.969 172.978L223.876 173.071V172.899H216.075H215.917L207.954 172.964H207.861V173.048L207.782 172.964H207.861L207.782 168.013L207.708 172.885V173.141H207.963L215.764 173.206H216.084L224.057 173.234H224.233V172.955L224.164 168.032Z" fill="#DBDBDB"/>
<path d="M224.159 178.139H224.001L216.042 178.204H215.95V178.287L215.871 178.204H215.95L215.871 173.243L215.796 178.115V178.357H216.056L223.857 178.422H224.177V178.357H225.894V178.139H224.159ZM224.159 172.983H223.811L216.01 173.085L224.024 173.188H224.159H225.862V172.946L224.159 172.983ZM215.852 173.234L215.778 178.106V178.176H215.94L215.852 173.234ZM224.159 173.169H223.899V172.983H223.806L216.005 173.085L224.02 173.188H224.154H225.857V173.164L224.159 173.169Z" fill="#DBDBDB"/>
<path d="M224.163 178.292H225.88V178.245L224.163 178.292Z" fill="#DBDBDB"/>
<path d="M224.159 178.138H224.001C221.347 178.138 218.683 178.161 216.042 178.194H215.694L207.894 178.296L212.938 178.361L215.912 178.399H216.042C218.65 178.431 221.249 178.454 223.843 178.454V178.296L223.996 178.45H224.163V178.152L224.159 178.138ZM224.159 178.138H224.001L216.042 178.203H215.95H215.694L207.894 178.306L212.938 178.371L215.912 178.408H216.042C218.65 178.44 221.249 178.464 223.843 178.464V178.306L223.908 178.371H224.001V178.306H224.163L224.159 178.138Z" fill="#DBDBDB"/>
<path d="M216.028 110.814V110.484H215.393C215.393 110.577 215.337 110.674 215.305 110.777H215.713V110.619L215.866 110.772H215.713V115.644H215.885L215.815 115.714L215.722 115.807V115.635H212.372C212.34 115.673 212.306 115.708 212.27 115.742C212.233 115.779 212.195 115.821 212.158 115.853C212.122 115.893 212.083 115.93 212.042 115.965H215.894H216.07V115.686L216.028 110.814Z" fill="#DBDBDB"/>
<path d="M207.898 117.992L207.768 118.034L207.699 118.057L207.569 118.103V120.893H207.745L207.675 120.962L207.583 121.055V120.883L199.782 120.907H199.624L194.343 120.953L193.939 121.162L199.466 121.209H199.782L207.759 121.232H207.931V120.953L207.898 117.992Z" fill="#DBDBDB"/>
<path d="M216.029 121.218V120.906H215.866C213.206 120.906 210.553 120.925 207.908 120.962H207.559L199.759 121.064L207.778 121.167H207.908C210.516 121.199 213.114 121.222 215.708 121.222V121.064L215.861 121.218H215.708V126.09H215.88L215.81 126.159L215.718 126.252V126.08L207.917 126.104H207.759L199.796 126.169H199.708V126.29L199.624 126.206H199.708L199.629 121.26L199.554 126.132V126.387H199.81L207.611 126.457H207.931L215.903 126.48H216.08V126.201L216.029 121.218ZM199.606 121.218L199.531 126.09V126.159H199.698L199.606 121.218ZM207.908 121.148H207.652V120.962H207.559L199.759 121.064L207.778 121.167H207.908C210.516 121.199 213.114 121.222 215.708 121.222L207.908 121.148Z" fill="#DBDBDB"/>
<path d="M207.894 126.42V126.108H207.736C205.072 126.108 202.418 126.127 199.772 126.164H199.424L191.624 126.266L199.643 126.369H199.772C202.381 126.401 204.979 126.425 207.573 126.425V126.29L207.731 126.443H207.573V131.315H207.75L207.68 131.385L207.587 131.478V131.306L199.786 131.329H199.629L191.665 131.394H191.577V131.478L191.494 131.394H191.577L191.498 126.448L191.382 131.296V131.552H191.638L199.443 131.622H199.759H207.736H207.907V131.343L207.894 126.42Z" fill="#DBDBDB"/>
<path d="M216.029 131.622V131.31H215.866C213.206 131.31 210.553 131.329 207.908 131.366H207.56L199.759 131.468L207.778 131.57H207.908C210.516 131.603 213.114 131.626 215.709 131.626V131.468L215.862 131.622H215.709V136.494H215.88L215.811 136.563L215.718 136.656V136.517L207.917 136.54H207.759L199.796 136.605H199.708V136.689L199.624 136.605H199.708L199.629 131.659L199.522 136.517V136.772H199.777L207.578 136.842H207.898H215.871H216.047V136.563L216.029 131.622ZM199.685 136.586V136.67L199.601 136.586H199.685L199.606 131.64L199.522 136.517V136.586V136.763H199.777V136.596L199.685 136.586ZM207.908 131.552H207.653V131.366H207.56L199.759 131.468L207.778 131.57H207.908C210.516 131.603 213.114 131.626 215.709 131.626L207.908 131.552Z" fill="#DBDBDB"/>
<path d="M207.894 136.824V136.518H207.736C205.072 136.518 202.418 136.536 199.772 136.573H199.424L191.624 136.676L199.643 136.778H199.772C202.381 136.81 204.979 136.834 207.573 136.834V136.676L207.731 136.829H207.573V141.701H207.75L207.68 141.771L207.587 141.864V141.692L199.786 141.715H199.629L191.665 141.78H191.577V141.864L191.494 141.78H191.577L191.498 136.834L191.382 141.701V141.957H191.638L199.443 142.026H199.759H207.736H207.907V141.748L207.894 136.824Z" fill="#DBDBDB"/>
<path d="M216.029 142.026V141.715H215.866C213.207 141.715 210.553 141.738 207.908 141.771H207.559L199.759 141.873L207.778 141.975H207.908C210.516 142.008 213.114 142.031 215.708 142.031V141.873L215.866 142.031H215.708V146.903H215.88L215.81 146.973L215.718 147.066V146.894L207.917 146.917H207.759L199.796 146.982H199.708V147.066L199.624 146.982H199.708L199.629 142.036L199.554 146.908V147.163H199.81L207.611 147.233H207.931H215.903H216.08V146.954L216.029 142.026ZM199.684 146.991V147.075L199.601 146.991H199.684L199.606 142.045L199.531 146.917V146.987V147.163H199.786V146.996L199.684 146.991ZM207.908 141.957H207.652V141.771H207.559L199.759 141.873L207.778 141.975H207.908C210.516 142.008 213.114 142.031 215.708 142.031L207.908 141.957Z" fill="#DBDBDB"/>
<path d="M207.894 147.209V146.898H207.736C205.072 146.898 202.418 146.921 199.772 146.954H199.424L191.624 147.056L199.643 147.158H199.772C202.381 147.191 204.979 147.214 207.573 147.214V147.056L207.731 147.209H207.573V152.081H207.75L207.68 152.151L207.587 152.244V152.072L199.786 152.095H199.629L191.665 152.16H191.577V152.244L191.494 152.16H191.577L191.47 147.209L191.382 152.105V152.36H191.638L199.443 152.43H199.759H207.736H207.907V152.151L207.894 147.209Z" fill="#DBDBDB"/>
<path d="M216.029 152.431V152.119H215.866C213.207 152.119 210.553 152.142 207.908 152.175H207.559L199.759 152.277L207.778 152.379H207.908C210.516 152.412 213.114 152.435 215.708 152.435V152.277L215.866 152.435H215.708V157.307H215.88L215.81 157.377L215.718 157.47V157.298H207.917H207.759L199.796 157.363H199.708V157.447L199.624 157.363H199.708L199.629 152.417L199.554 157.289V157.544H199.81L207.611 157.609H207.931L215.903 157.637H216.08V157.358L216.029 152.431ZM199.606 152.431L199.531 157.303V157.372H199.698L199.606 152.431ZM207.908 152.361H207.652V152.175H207.559L199.759 152.277L207.778 152.379H207.908C210.516 152.412 213.114 152.435 215.708 152.435L207.908 152.361Z" fill="#DBDBDB"/>
<path d="M207.894 157.628V157.321H207.736C205.072 157.321 202.418 157.344 199.772 157.377H199.424L191.624 157.479L199.643 157.581H199.772C202.381 157.614 204.979 157.637 207.573 157.637V157.479L207.726 157.628H207.573V162.5H207.75L207.68 162.569L207.587 162.662V162.49H199.786H199.629L191.665 162.555H191.577V162.639L191.494 162.555H191.577L191.498 157.604L191.382 162.509V162.765H191.638L199.443 162.83H199.759L207.736 162.858H207.907V162.579L207.894 157.628Z" fill="#DBDBDB"/>
<path d="M216.029 162.83V162.523H215.866C213.207 162.523 210.553 162.546 207.908 162.579H207.559L199.759 162.681L207.778 162.783H207.908C210.516 162.816 213.114 162.839 215.708 162.839V162.681L215.866 162.839H215.708V167.711H215.88L215.708 167.883V167.711H207.908H207.75L199.786 167.776H199.698V167.86L199.615 167.776H199.698L199.619 162.825L199.545 167.697V167.953H199.8L207.601 168.018H207.921L215.894 168.046H216.07V167.767L216.029 162.83ZM199.606 162.83L199.531 167.702V167.771H199.698L199.606 162.83ZM207.908 162.765H207.652V162.579H207.559L199.759 162.681L207.778 162.783H207.908C210.516 162.816 213.114 162.839 215.708 162.839L207.908 162.765Z" fill="#DBDBDB"/>
<path d="M207.894 168.032V167.725H207.736C205.072 167.725 202.418 167.748 199.772 167.781H199.424L191.624 167.883L199.643 167.985H199.772C202.381 168.018 204.979 168.041 207.573 168.041V167.883L207.726 168.032H207.573V172.904H207.75L207.68 172.974L207.587 173.067V172.895H199.786H199.629L191.665 172.96H191.577V173.043L191.494 172.96H191.577L191.498 168.009L191.382 172.913V173.169H191.638L199.443 173.234H199.759L207.736 173.262H207.907V172.983L207.894 168.032Z" fill="#DBDBDB"/>
<path d="M216.029 173.243V172.936H215.866C213.207 172.936 210.553 172.959 207.908 172.992H207.559L199.759 173.094L207.778 173.196H207.908C210.516 173.229 213.114 173.252 215.708 173.252V173.094L215.866 173.252H215.708V178.124H215.88L215.708 178.296V178.124H207.908H207.75L199.786 178.189H199.698V178.273L199.615 178.189H199.698L199.606 173.243L199.531 178.115V178.357H199.786L207.587 178.422H207.908L215.88 178.45H216.056V178.171L216.029 173.243ZM207.908 173.178H207.652V172.992H207.559L199.759 173.094L207.778 173.196H207.908C210.516 173.229 213.114 173.252 215.708 173.252L207.908 173.178Z" fill="#DBDBDB"/>
<path d="M207.736 178.129C205.072 178.129 202.418 178.152 199.772 178.185H199.424L191.624 178.287L196.668 178.352L199.643 178.389H199.772C202.38 178.422 204.979 178.445 207.573 178.445V178.287L207.638 178.352L207.726 178.436H207.893V178.129H207.736ZM207.736 178.129C205.072 178.129 202.418 178.152 199.772 178.185H199.424L191.624 178.287L196.668 178.352L199.643 178.389H199.772C202.38 178.422 204.979 178.445 207.573 178.445V178.287L207.638 178.352H207.736V178.287H207.893V178.129H207.736Z" fill="#DBDBDB"/>
<path d="M199.759 121.218V120.906H199.601C197.853 120.906 196.108 120.916 194.366 120.934L194.32 120.962L193.916 121.171H193.874C195.731 121.171 197.587 121.204 199.443 121.204V121.046L199.596 121.199H199.443V126.071H199.619L199.55 126.141L199.457 126.234V126.062L191.656 126.085H191.498H190.496L190.468 126.369H191.341H191.656L199.633 126.392H199.805V126.113L199.759 121.218ZM191.624 126.118V126.29L199.425 126.187V126.118H191.624Z" fill="#DBDBDB"/>
<path d="M191.638 131.552V131.366V126.42V126.108H190.454L190.426 126.392H191.299V126.29L191.452 126.443H191.299V131.315H191.471L191.401 131.385L191.299 131.487V131.315H190.176C190.178 131.341 190.178 131.368 190.176 131.394C190.176 131.455 190.176 131.51 190.176 131.566C190.173 131.596 190.173 131.625 190.176 131.654H191.656V131.561L191.638 131.552ZM191.308 126.438V131.31H191.401L191.475 126.438H191.308Z" fill="#DBDBDB"/>
<path d="M199.759 131.622V131.31H199.601C196.937 131.31 194.283 131.329 191.638 131.366H191.294H190.171C190.171 131.426 190.171 131.482 190.171 131.538H191.512H191.647C194.26 131.57 196.854 131.594 199.448 131.594V131.436L199.601 131.589H199.448V136.461H199.624L199.554 136.531L199.462 136.624V136.517L191.661 136.54H191.503H189.647C189.647 136.633 189.605 136.721 189.582 136.81H191.35H191.665H199.643H199.814V136.531L199.759 131.622ZM191.624 136.517V136.666L199.424 136.563V136.517H191.624Z" fill="#DBDBDB"/>
<path d="M191.638 141.957V141.771V136.824V136.518H191.48H189.624C189.624 136.611 189.582 136.699 189.559 136.787H191.331V136.629L191.485 136.783H191.331V141.655H191.503L191.434 141.724L191.345 141.813V141.641H184.501L184.44 141.78V141.808C184.44 141.854 184.398 141.901 184.38 141.952H191.531H191.707V141.859L191.638 141.957ZM191.308 136.843V141.715H191.401L191.475 136.843H191.308Z" fill="#DBDBDB"/>
<path d="M199.759 142.026V141.715H199.601C196.937 141.715 194.283 141.738 191.638 141.771H191.294L184.389 141.859V141.887L191.522 141.975H191.656C194.269 142.008 196.863 142.031 199.457 142.031V141.873L199.61 142.026H199.457V146.898H199.633L199.564 146.968L199.471 147.061V146.889L191.67 146.912H191.512L183.554 146.977H183.461V147.061L183.377 146.977H183.461L183.405 143.672L183.35 143.737L183.299 146.908V147.163H183.493L191.294 147.233H191.61H199.587H199.759V146.954V142.026ZM191.624 146.926V147.075L199.425 146.973V146.903L191.624 146.926Z" fill="#DBDBDB"/>
<path d="M191.638 152.361V152.175V147.228V146.917H191.48C188.825 146.917 186.162 146.94 183.521 146.973H183.173L179.628 147.019L179.489 147.131L183.387 147.177H183.493C186.106 147.21 188.7 147.233 191.294 147.233V147.075L191.447 147.228H191.294V152.1H191.466L191.396 152.17L191.308 152.258V152.086L183.503 152.11H183.345L175.386 152.175H175.294V152.258L175.21 152.175H175.294L175.261 150.283L175.159 150.357L175.136 152.105V152.361H175.396L183.196 152.431H183.493H191.471H191.647V152.338L191.638 152.361ZM191.308 147.247V152.119H191.401L191.475 147.247H191.308Z" fill="#DBDBDB"/>
<path d="M199.759 152.431V152.119H199.601C196.937 152.119 194.283 152.142 191.638 152.175H191.294L183.493 152.277L191.512 152.379H191.647C194.26 152.412 196.854 152.435 199.448 152.435V152.277L199.601 152.431H199.448V157.303H199.624L199.555 157.372L199.462 157.465V157.293H191.661H191.503L183.545 157.358H183.452V157.442L183.368 157.358H183.452L183.373 152.412L183.299 157.284V157.54H183.493L191.294 157.605H191.61L199.587 157.633H199.759V157.354V152.431ZM191.624 157.33V157.479L199.425 157.377V157.307L191.624 157.33Z" fill="#DBDBDB"/>
<path d="M191.638 162.765V162.579V157.628V157.321H191.48C188.825 157.321 186.162 157.344 183.521 157.377H183.173L175.368 157.479L183.387 157.581H183.493C186.106 157.614 188.7 157.637 191.294 157.637V157.479L191.443 157.628H191.294V162.5H191.466L191.396 162.569L191.308 162.658V162.486L183.493 162.551H183.336L175.377 162.616H175.284V162.699L175.201 162.616H175.284L175.205 157.665L175.14 162.509V162.765H175.4L183.201 162.83H183.493L191.471 162.858H191.647V162.765H191.638ZM191.308 157.651V162.523H191.401L191.475 157.651H191.308Z" fill="#DBDBDB"/>
<path d="M199.759 162.83V162.523H199.601C196.937 162.523 194.283 162.546 191.638 162.579H191.294L183.489 162.681L191.508 162.783H191.642C194.255 162.816 196.849 162.839 199.443 162.839V162.681L199.596 162.834H199.443V167.706H199.62L199.55 167.776L199.457 167.869V167.697H191.656H191.498L183.54 167.762H183.447V167.846L183.364 167.762H183.447L183.368 162.811L183.294 167.683V167.939H183.493L191.294 168.004H191.61L199.587 168.032H199.759V167.753V162.83ZM191.624 167.734V167.883L199.425 167.781V167.711L191.624 167.734Z" fill="#DBDBDB"/>
<path d="M191.638 173.169V172.983V168.032V167.725H191.48C188.825 167.725 186.162 167.748 183.521 167.781H183.173L175.368 167.883L183.387 167.985H183.493C186.106 168.018 188.7 168.041 191.294 168.041V167.883L191.443 168.032H191.294V172.904H191.466L191.396 172.974L191.308 173.062V172.89H183.503H183.345L175.386 172.955H175.294V173.039L175.21 172.955H175.294L175.215 168.004L175.14 172.913V173.169H175.4L183.201 173.234H183.493L191.471 173.262H191.647V173.169H191.638ZM191.308 168.055V172.927H191.401L191.475 168.055H191.308Z" fill="#DBDBDB"/>
<path d="M199.759 173.243V172.936H199.601C196.937 172.936 194.283 172.959 191.637 172.992H191.294L183.489 173.094L191.508 173.196H191.642C194.255 173.229 196.849 173.252 199.443 173.252V173.094L199.596 173.248H199.443V178.119H199.619L199.55 178.189L199.457 178.282V178.11H191.656H191.498L183.54 178.175H183.447V178.259L183.363 178.175H183.447L183.335 173.243L183.261 178.115V178.357H183.493L191.294 178.422H191.61L199.587 178.45H199.759V178.171V173.243ZM199.443 173.243V178.115H199.54L199.596 173.243H199.443ZM199.601 172.927C196.937 172.927 194.283 172.95 191.637 172.983H191.294L183.489 173.085L191.508 173.187H191.642C194.255 173.22 196.849 173.243 199.443 173.243V173.085L199.591 173.234V173.085H199.749V172.927H199.601Z" fill="#DBDBDB"/>
<path d="M191.466 178.129C188.812 178.129 186.148 178.152 183.507 178.185H183.159L175.354 178.287L180.398 178.352L183.373 178.389H183.493C186.106 178.422 188.7 178.445 191.294 178.445V178.287L191.359 178.352L191.447 178.44H191.61V178.134L191.466 178.129ZM191.466 178.129C188.812 178.129 186.148 178.152 183.507 178.185H183.159L175.354 178.287L180.398 178.352L183.373 178.389H183.493C186.106 178.422 188.7 178.445 191.294 178.445V178.287L191.359 178.352H191.452V178.287H191.61V178.129H191.466Z" fill="#DBDBDB"/>
<path d="M183.493 143.491L183.359 143.653L183.303 143.719L183.169 143.863V146.889H183.34L183.271 146.959L183.182 147.047V146.875H179.772L179.637 146.982L179.498 147.094L179.354 147.205H183.354H183.493V146.926V143.491ZM183.493 143.491L183.359 143.653L183.303 143.719L183.169 143.863V146.889H183.34L183.271 146.959L183.182 147.047V146.875H179.772L179.637 146.982L179.498 147.094L179.354 147.205H183.354H183.493V146.926V143.491Z" fill="#DBDBDB"/>
<path d="M175.363 150.199C175.327 150.231 175.288 150.259 175.247 150.283L175.145 150.357L175.029 150.441V152.105H175.2L175.131 152.175L175.038 152.268V152.096H172.718L172.583 152.189L172.356 152.324L172.212 152.426H175.196H175.372V152.147L175.363 150.199ZM175.279 152.175L175.247 150.283L175.145 150.357L175.029 150.441V152.105H175.2L175.131 152.175H175.279Z" fill="#DBDBDB"/>
<path d="M183.494 152.431V152.119H183.336C180.681 152.119 178.018 152.142 175.377 152.175H175.029L172.556 152.207L172.356 152.324L175.238 152.361H175.373C177.985 152.393 180.579 152.417 183.173 152.417V152.259L183.327 152.412H183.173V157.284H183.345L183.275 157.354L183.187 157.442V157.27H175.382H175.224L167.265 157.335H167.173V157.419L167.094 157.335H167.173V156.001L167.052 156.089V157.265V157.521H167.252L175.052 157.586H175.368L183.345 157.614H183.494V157.335V152.431ZM183.494 152.431H183.178V157.303H183.35L183.28 157.372L183.192 157.461V157.289H175.386V157.586L183.364 157.614H183.494V157.335V152.431Z" fill="#DBDBDB"/>
<path d="M175.354 157.628V157.321H175.196C172.542 157.321 169.878 157.344 167.237 157.377H166.889L165.33 157.4L165.145 157.558L167.108 157.581H167.251C169.859 157.614 172.458 157.637 175.052 157.637V157.479L175.201 157.628H175.052V162.5H175.224L175.052 162.672V162.5H167.251H167.089H165.349C165.377 162.593 165.4 162.681 165.428 162.769H166.931H167.251L175.224 162.797H175.4V162.518L175.354 157.628ZM175.28 162.579L175.201 157.628H175.038V162.5H175.21L175.14 162.569L175.28 162.579Z" fill="#DBDBDB"/>
<path d="M183.493 162.83V162.523H183.336C180.681 162.523 178.017 162.546 175.377 162.579H175.029L167.228 162.681L175.242 162.783H175.377C177.99 162.816 180.584 162.839 183.178 162.839V162.681L183.331 162.834H183.178V167.706H183.35L183.28 167.776L183.192 167.864V167.692H175.386H175.228L167.27 167.758H167.177V167.841L167.098 167.758H167.177L167.098 162.807L167.029 167.678V167.934H167.251L175.052 167.999H175.368L183.345 168.027H183.493V167.748V162.83ZM183.493 162.83H183.178V167.702H183.35L183.28 167.771L183.192 167.86V167.688H175.386V167.985L183.363 168.013H183.493V167.734V162.83Z" fill="#DBDBDB"/>
<path d="M175.354 168.032V167.725H175.196C172.542 167.725 169.878 167.748 167.238 167.781H166.889H166.105V167.962H167.098H167.251C169.859 167.995 172.458 168.018 175.052 168.018V167.86L175.201 168.009H175.052V172.881H175.224L175.052 173.053V172.881H167.251H166.379V173.169H167.238L175.21 173.197H175.386V172.918L175.354 168.032ZM175.28 172.983L175.201 168.032H175.038V172.904H175.21L175.14 172.974L175.28 172.983Z" fill="#DBDBDB"/>
<path d="M183.494 173.243V172.936H183.336C180.681 172.936 178.018 172.959 175.377 172.992H175.029L167.228 173.094L175.243 173.196H175.377C177.99 173.229 180.584 173.252 183.178 173.252V173.094L183.331 173.248H183.178V178.119H183.35L183.28 178.189L183.192 178.278V178.106H175.386H175.229L170.147 178.147L170.3 178.319H175.071V178.403H175.386L183.364 178.431H183.494V178.152V173.243ZM167.066 173.094V173.243V174.717L167.117 174.777V173.234L167.066 173.094ZM183.178 173.252V178.124H183.271L183.345 173.252H183.178Z" fill="#DBDBDB"/>
<path d="M175.196 178.129C173.495 178.129 171.793 178.137 170.092 178.152L170.115 178.18L170.268 178.352H175.038V178.287L175.103 178.352L175.192 178.44H175.354V178.134L175.196 178.129ZM175.196 178.129C173.495 178.129 171.793 178.137 170.092 178.152L170.115 178.18L170.268 178.352H175.038V178.287L175.103 178.352H175.196V178.287H175.354V178.129H175.196Z" fill="#DBDBDB"/>
<path d="M167.251 155.963L167.14 156.042L167.019 156.131L166.912 156.21V157.307H167.084L167.005 157.386L166.912 157.479V157.307H165.46L165.353 157.395L165.168 157.553L165.061 157.646H167.251V155.954V155.963ZM167.251 155.963L167.14 156.042L167.019 156.131L166.912 156.21V157.307H167.084L167.005 157.386L166.912 157.479V157.307H165.46L165.353 157.395L165.168 157.553L165.061 157.646H167.251V155.954V155.963Z" fill="#DBDBDB"/>
<path d="M167.224 162.83V162.523H165.316C165.344 162.616 165.367 162.704 165.395 162.793H166.894V162.635L167.047 162.788H166.894V167.66H167.066L166.996 167.73L166.903 167.823V167.651H166.115V167.725V167.906V167.99H167.252V167.711L167.224 162.83ZM167.224 162.83H166.903V167.702H167.075L167.006 167.771L166.913 167.864V167.692H166.124V167.767V167.948V168.032H167.252V167.753L167.224 162.83Z" fill="#DBDBDB"/>
<path d="M167.223 173.243V172.936H166.351V173.224H166.889V173.066L167.042 173.22H166.889V174.54L167.028 174.693L167.079 174.754L167.219 174.912L167.223 173.243ZM167.223 173.243H166.903V174.563L167.042 174.717L167.093 174.777L167.233 174.935L167.223 173.243Z" fill="#DBDBDB"/>
<path d="M5.70801 178.357H129.092C129.092 178.357 133.598 180.017 125.017 180.9C116.437 181.783 95.8746 180.9 89.3917 183.071C84.7882 184.61 96.4825 190.825 77.4375 190.825C58.3926 190.825 52.3459 183.155 25.514 183.155C15.0727 183.155 5.70801 178.357 5.70801 178.357Z" fill="#EBEBEB"/>
<g opacity="0.5">
<path d="M51.9374 178.357L34.8925 183.503C32.7486 183.331 30.4515 183.22 27.9688 183.173L43.9231 178.357H51.9374Z" fill="white"/>
<path d="M82.5425 190.625L88.269 188.896C87.5172 189.681 85.8698 190.318 82.5425 190.625Z" fill="white"/>
<path d="M129.867 178.756L122.066 181.113C119.518 181.253 116.446 181.318 113.198 181.374L123.203 178.352H129.092C129.364 178.458 129.624 178.594 129.867 178.756Z" fill="white"/>
<path d="M88.5795 186.087L73.312 190.694C71.344 190.576 69.3832 190.359 67.437 190.044L88.4032 183.721C87.9948 184.339 88.3104 185.195 88.5795 186.087Z" fill="white"/>
<path d="M114.205 178.357L103.531 181.583C99.6704 181.704 96.0415 181.899 93.2061 182.281L106.2 178.357H114.205Z" fill="white"/>
<path d="M62.2762 178.357L42.3588 184.368C41.4817 184.233 40.5722 184.103 39.6255 183.987L58.2714 178.357H62.2762Z" fill="white"/>
<path d="M21.4671 178.357L12.585 181.035C11.9029 180.83 11.2625 180.616 10.6685 180.402L17.4576 178.357H21.4671Z" fill="white"/>
</g>
<path d="M140.838 88.2627H1.78711V162.472H140.838V88.2627Z" fill="#F08080"/>
<g opacity="0.1">
<path d="M8.19036 157L8.00474 141.166C7.93513 135.885 7.92585 130.609 7.88409 125.328L7.79127 109.494L7.75879 93.6599V93.2276H8.19036C18.3161 93.2276 28.4419 93.1857 38.5676 93.2276L68.9449 93.2787L99.3175 93.4228L114.506 93.5298L129.695 93.6739L114.506 93.8133L99.3175 93.9249L68.9449 94.069L38.5676 94.1202C28.4419 94.148 18.3161 94.1202 8.19036 94.1202L8.62658 93.6878L8.58945 109.522L8.50129 125.356C8.45952 130.637 8.45024 135.913 8.38063 141.194L8.19036 157Z" fill="black"/>
<path d="M131.301 113.273C126.303 113.376 121.305 113.422 116.307 113.501L101.309 113.627C91.3084 113.706 81.3126 113.697 71.3121 113.738C61.3163 113.701 51.3158 113.706 41.32 113.631L26.3216 113.501C21.3237 113.422 16.3212 113.38 11.3232 113.273C16.3212 113.167 21.3237 113.12 26.3216 113.046L41.32 112.916C51.3158 112.841 61.3163 112.846 71.3121 112.809C81.3126 112.846 91.3084 112.841 101.309 112.916L116.307 113.046C121.31 113.111 126.303 113.153 131.301 113.273Z" fill="black"/>
<path d="M131.301 137.4C126.303 137.503 121.305 137.549 116.307 137.628L101.309 137.754C91.3084 137.833 81.3126 137.823 71.3121 137.865C61.3163 137.828 51.3158 137.833 41.32 137.758L26.3216 137.628C21.3237 137.549 16.3212 137.503 11.3232 137.4C16.3212 137.294 21.3237 137.247 26.3216 137.173L41.32 137.042C51.3158 136.968 61.3163 136.973 71.3121 136.936C81.3126 136.973 91.3084 136.968 101.309 137.042L116.307 137.173C121.31 137.252 126.303 137.294 131.301 137.4Z" fill="black"/>
<path d="M134.433 93.6602L134.623 109.494C134.693 114.775 134.702 120.052 134.744 125.328C134.786 130.604 134.832 135.885 134.832 141.166L134.869 157V157.437H134.433C124.516 157.437 114.604 157.475 104.687 157.437L74.9408 157.391L45.2039 157.251L30.354 157.14L15.481 157L30.354 156.856L45.2039 156.749L74.9501 156.605L104.696 156.554C114.615 156.526 124.53 156.526 134.442 156.554L134.006 156.991L134.043 141.157C134.043 135.876 134.104 130.6 134.131 125.319C134.159 120.038 134.183 114.766 134.252 109.485L134.433 93.6602Z" fill="black"/>
</g>
<path d="M14.7707 170.272L10.6359 170.268L7.90723 162.472H16.7986L14.2741 166.377L14.7707 170.272Z" fill="#263238"/>
<path d="M18.6087 172.639C18.6078 173.769 18.2723 174.874 17.6446 175.813C17.017 176.752 16.1254 177.484 15.0826 177.915C14.0399 178.346 12.8928 178.458 11.7865 178.237C10.6802 178.015 9.66447 177.47 8.86768 176.669C8.0709 175.869 7.52891 174.85 7.31027 173.742C7.09163 172.633 7.20617 171.484 7.6394 170.44C8.07263 169.397 8.80508 168.505 9.74409 167.879C10.6831 167.252 11.7865 166.919 12.9147 166.921C13.6635 166.922 14.4047 167.07 15.0962 167.358C15.7877 167.645 16.4157 168.067 16.9445 168.598C17.4733 169.129 17.8925 169.759 18.178 170.453C18.4636 171.146 18.6099 171.889 18.6087 172.639Z" fill="#37474F"/>
<path d="M16.0241 172.634C16.0241 173.253 15.8409 173.857 15.4978 174.371C15.1548 174.885 14.6672 175.285 14.0968 175.521C13.5265 175.758 12.899 175.819 12.2938 175.698C11.6886 175.576 11.133 175.278 10.6972 174.84C10.2615 174.402 9.96518 173.845 9.8459 173.238C9.72663 172.631 9.78971 172.003 10.0272 171.432C10.2646 170.862 10.6658 170.374 11.1798 170.032C11.6939 169.69 12.2977 169.508 12.9149 169.51C13.324 169.51 13.729 169.591 14.1069 169.748C14.4847 169.905 14.8278 170.136 15.1167 170.426C15.4055 170.716 15.6343 171.061 15.7901 171.439C15.9458 171.818 16.0253 172.224 16.0241 172.634Z" fill="#DBDBDB"/>
<path d="M12.9756 170.738C12.9756 171.202 12.9198 171.551 12.8548 171.551C12.7897 171.551 12.7339 171.189 12.7339 170.738C12.7339 170.287 12.7897 169.929 12.8548 169.929C12.9198 169.929 12.9756 170.291 12.9756 170.738Z" fill="#263238"/>
<path d="M11.6199 171.244C11.9354 171.565 12.1535 171.858 12.1071 171.904C12.0607 171.951 11.7684 171.732 11.4482 171.416C11.128 171.1 10.9145 170.802 10.9609 170.756C11.0073 170.709 11.3275 170.919 11.6199 171.244Z" fill="#263238"/>
<path d="M11.0211 172.564C11.4851 172.564 11.8332 172.62 11.8332 172.685C11.8332 172.75 11.4666 172.806 11.0211 172.806C10.5756 172.806 10.209 172.75 10.209 172.685C10.209 172.62 10.5756 172.564 11.0211 172.564Z" fill="#263238"/>
<path d="M11.5275 173.922C11.8431 173.601 12.1401 173.383 12.1865 173.457C12.2329 173.531 12.0148 173.796 11.7224 174.112C11.4301 174.429 11.1099 174.647 11.0634 174.601C11.017 174.554 11.2119 174.238 11.5275 173.922Z" fill="#263238"/>
<path d="M12.8403 174.522C12.8403 174.057 12.8961 173.708 12.9658 173.708C13.0356 173.708 13.0821 174.071 13.0821 174.522C13.0821 174.972 13.0263 175.33 12.9612 175.33C12.8961 175.33 12.8403 174.968 12.8403 174.522Z" fill="#263238"/>
<path d="M14.1951 174.015C13.8796 173.694 13.6615 173.401 13.7079 173.354C13.7543 173.308 14.0513 173.526 14.3668 173.843C14.6824 174.159 14.9005 174.456 14.8309 174.503C14.7613 174.549 14.5107 174.331 14.1951 174.015Z" fill="#263238"/>
<path d="M14.7938 172.694C14.3297 172.694 13.9863 172.639 13.9863 172.574C13.9863 172.508 14.3483 172.453 14.7938 172.453C15.2393 172.453 15.6059 172.508 15.6059 172.578C15.6059 172.648 15.2439 172.694 14.7938 172.694Z" fill="#263238"/>
<path d="M14.2882 171.341C13.9727 171.658 13.6757 171.876 13.6293 171.806C13.5829 171.737 13.801 171.462 14.1212 171.146C14.4414 170.83 14.7291 170.612 14.7801 170.658C14.8312 170.705 14.6038 171.021 14.2882 171.341Z" fill="#263238"/>
<path d="M127.853 170.272L131.987 170.268L134.721 162.472H125.825L128.349 166.377L127.853 170.272Z" fill="#263238"/>
<path d="M124.02 172.639C124.021 173.768 124.357 174.871 124.985 175.809C125.613 176.747 126.504 177.477 127.546 177.907C128.588 178.338 129.734 178.449 130.839 178.227C131.944 178.005 132.959 177.459 133.754 176.66C134.55 175.86 135.091 174.842 135.309 173.734C135.527 172.627 135.412 171.479 134.979 170.436C134.546 169.394 133.815 168.504 132.876 167.878C131.938 167.252 130.836 166.919 129.709 166.921C128.961 166.922 128.22 167.071 127.529 167.359C126.838 167.647 126.21 168.069 125.682 168.6C125.154 169.131 124.735 169.761 124.45 170.454C124.165 171.147 124.018 171.889 124.02 172.639Z" fill="#37474F"/>
<path d="M126.605 172.634C126.605 173.251 126.789 173.854 127.132 174.367C127.475 174.879 127.962 175.278 128.531 175.513C129.1 175.749 129.727 175.809 130.33 175.688C130.934 175.567 131.489 175.269 131.923 174.832C132.358 174.395 132.654 173.839 132.773 173.234C132.892 172.628 132.83 172.001 132.593 171.432C132.357 170.862 131.957 170.375 131.444 170.033C130.932 169.691 130.33 169.509 129.714 169.51C129.305 169.51 128.9 169.591 128.522 169.748C128.144 169.905 127.801 170.136 127.512 170.426C127.223 170.716 126.994 171.06 126.839 171.439C126.683 171.818 126.603 172.224 126.605 172.634Z" fill="#DBDBDB"/>
<path d="M129.663 170.738C129.663 171.202 129.719 171.551 129.784 171.551C129.849 171.551 129.905 171.189 129.905 170.738C129.905 170.287 129.849 169.929 129.779 169.929C129.709 169.929 129.663 170.291 129.663 170.738Z" fill="#263238"/>
<path d="M131.004 171.244C130.688 171.565 130.47 171.858 130.516 171.904C130.563 171.951 130.86 171.732 131.175 171.416C131.491 171.1 131.709 170.802 131.663 170.756C131.616 170.709 131.324 170.919 131.004 171.244Z" fill="#263238"/>
<path d="M131.607 172.564C131.143 172.564 130.795 172.62 130.795 172.685C130.795 172.75 131.157 172.806 131.607 172.806C132.057 172.806 132.414 172.75 132.414 172.685C132.414 172.62 132.053 172.564 131.607 172.564Z" fill="#263238"/>
<path d="M131.097 173.922C130.781 173.601 130.489 173.383 130.438 173.457C130.387 173.531 130.614 173.796 130.929 174.112C131.245 174.429 131.542 174.647 131.588 174.601C131.635 174.554 131.417 174.238 131.097 173.922Z" fill="#263238"/>
<path d="M129.784 174.522C129.784 174.057 129.728 173.708 129.663 173.708C129.598 173.708 129.542 174.071 129.542 174.522C129.542 174.972 129.598 175.33 129.663 175.33C129.728 175.33 129.784 174.968 129.784 174.522Z" fill="#263238"/>
<path d="M128.428 174.015C128.748 173.694 128.966 173.401 128.915 173.354C128.864 173.308 128.577 173.526 128.261 173.843C127.946 174.159 127.727 174.456 127.774 174.503C127.82 174.549 128.113 174.331 128.428 174.015Z" fill="#263238"/>
<path d="M127.83 172.694C128.294 172.694 128.642 172.639 128.642 172.574C128.642 172.508 128.28 172.453 127.83 172.453C127.38 172.453 127.022 172.508 127.022 172.578C127.022 172.648 127.384 172.694 127.83 172.694Z" fill="#263238"/>
<path d="M128.336 171.341C128.656 171.658 128.948 171.876 128.994 171.806C129.041 171.737 128.823 171.462 128.507 171.146C128.192 170.83 127.895 170.612 127.848 170.658C127.802 170.705 128.02 171.021 128.336 171.341Z" fill="#263238"/>
<path d="M123.134 72.415H19.4724L1.78711 88.2629H140.814L123.134 72.415Z" fill="#F08080"/>
<path opacity="0.3" d="M121.82 73.833H19.017L4.49658 86.845H136.34L121.82 73.833Z" fill="black"/>
<path d="M71.3119 88.2624H0L17.6806 72.0474H71.3119V88.2624Z" fill="#37474F"/>
<path d="M71.3026 88.2627H0V90.6243H71.3026V88.2627Z" fill="#263238"/>
<path d="M67.6689 73.3677H66.6387V86.7191H67.6689V73.3677Z" fill="#263238"/>
<path d="M62.2714 86.7191H61.2412L61.6821 73.3677H62.7123L62.2714 86.7191Z" fill="#263238"/>
<path d="M56.4343 86.7191H55.4087L56.7313 73.3677H57.7615L56.4343 86.7191Z" fill="#263238"/>
<path d="M50.601 86.7191H49.5708L51.7797 73.3677H52.8099L50.601 86.7191Z" fill="#263238"/>
<path d="M44.3227 86.7191H43.2925L46.8286 73.3677H47.8588L44.3227 86.7191Z" fill="#263238"/>
<path d="M38.0434 86.7191H37.0132L41.8765 73.3677H42.9021L38.0434 86.7191Z" fill="#263238"/>
<path d="M30.8784 86.7191H29.8481L36.4795 73.3677H37.5097L30.8784 86.7191Z" fill="#263238"/>
<path d="M24.1591 86.7191H23.1289L31.5284 73.3677H32.5586L24.1591 86.7191Z" fill="#263238"/>
<path d="M16.5534 86.7191H15.5278L26.1362 73.3677H27.1664L16.5534 86.7191Z" fill="#263238"/>
<path d="M9.393 86.7191H8.36279L21.1847 73.3677H22.2103L9.393 86.7191Z" fill="#263238"/>
<path d="M71.3022 25.75H131.198L123.207 72.0476H71.3022V25.75Z" fill="#263238"/>
<path d="M71.3166 25.75L131.203 25.75V22.5842L71.3166 22.5842V25.75Z" fill="#37474F"/>
<path d="M74.8294 68.2778H75.8271V30.1575H74.8294V68.2778Z" fill="#37474F"/>
<path d="M80.0505 30.1567H81.0482L80.6213 68.2771H79.6235L80.0505 30.1567Z" fill="#37474F"/>
<path d="M85.2425 30.1567H86.2403L85.4142 68.2771H84.4165L85.2425 30.1567Z" fill="#37474F"/>
<path d="M90.895 30.1567H91.8881L90.2035 68.2771H89.2104L90.895 30.1567Z" fill="#37474F"/>
<path d="M96.515 30.1567H97.508L94.9975 68.2771H94.0044L96.515 30.1567Z" fill="#37474F"/>
<path d="M102.135 30.1567H103.128L99.7912 68.2771H98.7935L102.135 30.1567Z" fill="#37474F"/>
<path d="M108.154 30.1567H109.151L105.012 68.2771H104.014L108.154 30.1567Z" fill="#37474F"/>
<path d="M113.746 30.1567H114.743L109.806 68.2771H108.808L113.746 30.1567Z" fill="#37474F"/>
<path d="M119.282 30.1567H120.28L115.027 68.2771H114.029L119.282 30.1567Z" fill="#37474F"/>
<path d="M124.391 30.1567H125.389L119.82 68.2771H118.822L124.391 30.1567Z" fill="#37474F"/>
<path d="M82.1287 71.7827H77.2515V72.6195H82.1287V71.7827Z" fill="#263238"/>
<path d="M118.906 71.7827H114.029V72.6195H118.906V71.7827Z" fill="#263238"/>
<path d="M32.1641 111.097C31.5933 112.79 30.3079 114.268 29.2777 115.686C28.4331 116.825 27.5931 118.243 26.2056 118.754C25.426 119.033 24.5257 119.149 24.2426 118.243C23.8621 117.02 24.0292 115.607 24.2798 114.282C24.3401 113.236 24.4236 112.195 24.5535 111.167C24.702 109.972 25.3935 109.438 26.5583 109.196C27.3696 109.061 28.1907 108.992 29.0132 108.992C29.7464 108.968 31.1432 108.754 31.8253 109.024C32.6746 109.363 32.4008 110.386 32.1641 111.097Z" fill="#263238"/>
<path d="M57.78 170.151C57.4273 171.816 56.3507 173.499 55.4968 174.949C54.7179 176.329 53.8254 177.641 52.8285 178.873C51.8493 180.04 50.8377 180.305 49.3666 180.365C47.4732 180.444 45.5567 180.472 43.6633 180.411C39.8859 180.3 36.2384 179.482 32.5259 178.919C28.3194 178.268 24.0406 178.235 19.8246 178.822C16.2653 179.314 12.6874 180.137 9.07702 179.709C6.46901 179.393 3.50832 178.408 1.84235 176.218C-0.0695707 173.68 2.05118 171.383 3.1742 169.059C3.38355 168.609 3.55432 168.143 3.68466 167.664C3.73571 167.483 3.77747 167.311 3.81924 167.125C4.42716 164.257 3.81924 161.123 4.93298 158.292C5.60587 156.554 6.5015 154.903 7.32288 153.234C8.18139 151.491 9.39258 149.655 9.75919 147.73C10.1444 145.722 9.55036 143.635 9.79167 141.598C9.99088 140.039 10.4096 138.516 11.0354 137.075C12.4275 133.756 14.5483 130.809 16.5437 127.843C17.8895 125.839 19.2121 123.826 20.5671 121.822C21.24 120.395 21.9593 118.991 23.0591 117.936C21.7829 117.155 20.3304 116.23 19.4348 115.082C18.6273 114.054 19.0264 113.18 19.5972 112.134C20.168 111.088 22.7064 106.035 24.1404 108.815C24.418 109.531 24.6323 110.27 24.7808 111.023C25.0221 111.841 25.2123 113.264 25.7599 113.915C26.7994 115.147 27.2356 113.589 28.0431 113.306C28.5675 113.129 29.0408 113.417 29.5466 113.599C30.3402 113.891 32.0108 114.063 32.0943 115.151C32.0659 115.595 31.9271 116.025 31.6906 116.402C31.44 116.867 30.6186 117.62 30.4005 118.261C30.8947 118.733 31.3366 119.257 31.7184 119.823C32.9343 121.618 33.6907 123.677 35.0504 125.402C36.2801 126.941 37.8347 128.191 39.2965 129.465C41.7978 131.631 44.4383 134.202 44.8652 137.666C45.0369 139.014 44.6703 140.525 44.9302 141.877C44.9818 142.162 45.0658 142.44 45.1808 142.705C45.2377 142.829 45.3013 142.95 45.371 143.067C46.1553 144.355 47.6913 145.034 48.8236 145.94C51.1195 147.767 52.913 150.149 54.035 152.863C55.2973 155.894 55.3251 158.762 55.2462 161.979C55.2212 162.907 55.4052 163.828 55.7845 164.675C55.9052 164.949 56.0398 165.219 56.1836 165.493C56.462 166 56.7683 166.516 57.0885 167.079C57.6923 167.981 57.9388 169.077 57.78 170.151Z" fill="#37474F"/>
<path d="M22.242 172.839C18.2372 172.183 14.186 172.551 10.1765 171.988C7.25294 171.574 5.34102 169.859 3.67969 167.674C3.73073 167.493 3.7725 167.321 3.81426 167.135C4.77324 168.125 5.81841 169.027 6.93738 169.831C8.34489 170.712 9.92975 171.269 11.578 171.463C15.1187 172.002 18.7941 171.728 22.2513 172.704C22.372 172.723 22.3348 172.853 22.242 172.839Z" fill="#263238"/>
<path d="M50.5915 168.664C47.6819 170.198 45.1991 172.494 42.373 174.168C40.8463 175.074 39.4448 175.098 37.7324 174.972C36.0201 174.846 34.1824 174.767 32.4097 174.647C32.2797 174.647 32.2844 174.833 32.4097 174.851C34.3634 175.088 36.3078 175.381 38.2661 175.609C39.5925 175.846 40.9595 175.664 42.1781 175.088C43.7281 174.307 45.1249 173.117 46.5263 172.104C48.0025 171.126 49.4203 170.063 50.7725 168.919C50.9256 168.789 50.7725 168.594 50.5915 168.664Z" fill="#263238"/>
<path d="M56.1974 165.465C54.743 166.674 53.4389 168.054 52.3132 169.575C50.921 171.406 49.5289 173.536 47.3803 174.544C47.2782 174.586 47.1854 174.442 47.2875 174.386C48.791 173.656 49.6866 172.146 50.6148 170.811C51.3248 169.793 52.0069 168.775 52.7819 167.799C53.6539 166.628 54.667 165.569 55.7983 164.647C55.9189 164.921 56.0535 165.191 56.1974 165.465Z" fill="#263238"/>
<path d="M45.2037 142.677C44.7356 143.688 44.16 144.645 43.4867 145.531C42.0576 147.255 40.0856 148.441 37.8948 148.893C37.8837 148.893 37.8731 148.888 37.8653 148.88C37.8574 148.872 37.853 148.862 37.853 148.851C37.853 148.84 37.8574 148.829 37.8653 148.821C37.8731 148.813 37.8837 148.809 37.8948 148.809C40.3833 147.98 42.4862 146.273 43.8115 144.007C44.2199 143.295 44.5819 142.552 44.9763 141.85C45.0204 142.133 45.0967 142.411 45.2037 142.677Z" fill="#263238"/>
<path d="M32.674 125.361C31.9686 124.259 31.8758 122.883 31.2818 121.716C30.7492 120.696 30.0741 119.756 29.2771 118.927C29.6112 118.787 29.9407 118.62 30.2423 118.462C30.3676 118.401 30.2748 118.225 30.1541 118.248C29.2631 118.429 28.7341 118.769 27.7503 118.713C27.3744 118.685 27.031 118.569 26.6412 118.564C25.4806 118.501 24.3313 118.303 23.2165 117.974C23.1904 117.969 23.1636 117.973 23.1402 117.986C23.1169 117.998 23.0986 118.018 23.0883 118.043C23.078 118.067 23.0764 118.094 23.0837 118.12C23.0909 118.145 23.1067 118.168 23.1283 118.183C23.2814 118.276 23.4253 118.355 23.5924 118.434C22.7076 119.449 22.0579 120.648 21.6897 121.944C21.6897 121.995 21.7547 122.032 21.7779 121.981C22.1043 121.227 22.5187 120.513 23.0123 119.856C23.3647 119.482 23.6504 119.049 23.8569 118.578C24.0239 118.666 24.191 118.745 24.3534 118.82C24.1206 119.153 23.9333 119.515 23.7965 119.898C23.2384 120.689 22.7714 121.541 22.4044 122.437C21.7083 124.115 21.815 125.993 21.0586 127.625C21.0586 127.666 21.1004 127.708 21.1236 127.662C21.8521 126.267 21.9914 124.649 22.655 123.213C23.3186 121.776 24.2188 120.461 24.8592 119.029C25.3248 119.17 25.8132 119.221 26.2978 119.178C26.5883 119.159 26.8797 119.159 27.1702 119.178C26.6505 120.777 27.3837 122.274 27.6668 123.868C27.6645 124.062 27.7091 124.254 27.7967 124.426C27.8165 124.467 27.8443 124.504 27.8784 124.535C27.9126 124.565 27.9524 124.588 27.9956 124.603C28.0389 124.618 28.0845 124.623 28.1301 124.62C28.1756 124.617 28.22 124.605 28.2608 124.584C28.4696 124.454 28.4928 124.082 28.4928 123.868C28.4939 123.566 28.4189 123.269 28.2747 123.004C28.2695 122.998 28.2626 122.994 28.255 122.992C28.2473 122.99 28.2393 122.991 28.2321 122.994C28.2249 122.997 28.2188 123.002 28.2148 123.009C28.2108 123.016 28.209 123.024 28.2097 123.032C28.3165 123.394 28.3907 124.259 28.0705 124.189C27.8385 124.138 27.6946 122.432 27.5276 121.814C27.341 121.254 27.2746 120.662 27.3327 120.075C27.3327 119.763 27.4023 119.489 27.4069 119.187C27.7907 119.211 28.1759 119.2 28.5578 119.154C28.6929 119.129 28.8262 119.095 28.9569 119.052C29.7102 120.031 30.3999 121.058 31.0219 122.125C31.5834 123.222 31.848 124.412 32.5951 125.412C32.6461 125.454 32.7204 125.412 32.674 125.361Z" fill="#263238"/>
<path d="M33.023 152.747C28.8464 152.179 24.837 154.174 20.6419 153.848C18.3865 153.672 16.6556 152.779 14.92 151.38C13.5279 150.264 12.2888 148.939 10.6785 148.153C10.6601 148.143 10.6382 148.14 10.6178 148.146C10.5973 148.152 10.5799 148.165 10.5695 148.184C10.559 148.202 10.5563 148.224 10.562 148.245C10.5676 148.265 10.5812 148.282 10.5996 148.293C13.8063 150.51 15.4676 154.304 19.6906 154.801C24.1734 155.35 28.4566 152.793 32.9766 153.067C33.1668 153.095 33.2132 152.788 33.023 152.747Z" fill="#263238"/>
<path d="M39.1105 155.159C36.1727 154.911 33.2169 154.978 30.2934 155.359C27.4812 155.666 24.5251 156.754 21.7268 155.991C21.6572 155.991 21.634 156.07 21.6943 156.098C24.2003 157.135 26.799 156.628 29.3652 156.238C32.6136 155.75 35.8249 155.624 39.1105 155.392C39.1412 155.392 39.1707 155.379 39.1925 155.358C39.2143 155.336 39.2265 155.306 39.2265 155.275C39.2265 155.245 39.2143 155.215 39.1925 155.193C39.1707 155.171 39.1412 155.159 39.1105 155.159Z" fill="#263238"/>
<path d="M50.188 138.265C49.594 138.763 48.4013 139.832 48.4617 141.008C48.522 142.184 50.2715 143.142 50.0951 143.644C49.9188 144.146 41.6075 158.618 42.0345 163.016C42.4614 167.414 46.1785 170.57 46.2388 171.746C46.2992 172.922 47.2783 176.135 49.4872 177.687C51.6962 179.24 62.6572 181.871 63.9148 181.895C65.1724 181.918 76.8017 179.012 78.825 178.547C80.8483 178.083 86.0411 173.527 86.5052 172.862C86.9692 172.197 86.946 166.907 87.1177 166.656C87.2894 166.405 89.1735 164.508 89.7025 162.937C90.2316 161.365 87.2616 153.904 85.939 152.872C84.6165 151.84 81.8089 146.959 81.7347 146.326C81.6604 145.694 81.6883 144.202 81.6883 144.202C81.6883 144.202 83.0804 143.533 83.4842 142.282C83.8879 141.031 80.9133 138.14 78.7322 137.089C76.5511 136.039 74.4072 136.197 71.0984 134.56C67.7897 132.924 61.5713 128.982 59.6919 128.494C57.8124 128.005 50.7077 127.922 49.6775 129.056C48.6473 130.19 46.9396 134.635 47.1159 135.332C47.2922 136.029 50.188 138.265 50.188 138.265Z" fill="#455A64"/>
<path d="M81.0202 141.203C80.2631 141.679 79.3895 141.937 78.4957 141.947C76.9212 142.005 75.3455 141.869 73.8041 141.543L73.5767 141.501L73.4328 141.473C73.1126 141.408 72.7878 141.352 72.4629 141.301C71.4466 141.134 70.4118 141.013 69.3816 140.897L68.2818 140.771C67.9244 140.734 67.5671 140.692 67.2144 140.646L66.7086 140.571C66.161 140.497 65.6227 140.413 65.0844 140.306C64.8106 140.255 64.5368 140.199 64.2677 140.134C63.6687 140 63.077 139.836 62.4949 139.641C61.8313 139.418 61.1631 139.176 60.4949 138.898C60.2303 138.791 59.9658 138.684 59.7013 138.568C59.0192 138.27 58.337 137.949 57.678 137.605C56.4198 136.965 55.2209 136.213 54.0955 135.36C53.4524 134.917 52.9203 134.332 52.5409 133.649C52.3431 133.232 52.2675 132.768 52.3228 132.31C52.4806 130.85 53.3484 130.046 55.1582 129.837C56.6942 129.656 58.3091 129.544 59.7988 130.028C61.409 130.548 67.581 133.83 69.2516 134.728C71.2749 135.815 73.1637 136.066 75.3308 136.671C75.5907 136.741 75.8691 136.833 76.1615 136.94C77.6325 137.47 79.4099 138.405 80.454 139.59C80.771 139.929 81.0255 140.32 81.2058 140.748C81.2276 140.834 81.2213 140.924 81.1879 141.006C81.1545 141.088 81.0957 141.157 81.0202 141.203Z" fill="#263238"/>
<path d="M73.8036 141.542L73.5763 141.501L73.4324 141.473C73.1122 141.408 72.7874 141.352 72.4625 141.301C71.4462 141.133 70.4114 141.012 69.3812 140.896L68.2813 140.771C67.924 140.733 67.5667 140.692 67.214 140.645L66.7082 140.571C66.1606 140.496 65.6223 140.413 65.084 140.306C65.2186 140.217 65.3995 140.111 65.6177 139.99C66.0028 139.771 66.4947 139.525 66.9866 139.283L67.033 139.26L67.3857 139.092C67.8498 138.869 68.3138 138.669 68.6433 138.553C68.764 138.504 68.8881 138.464 69.0146 138.432C69.0945 138.42 69.1759 138.42 69.2559 138.432C70.3 138.465 73.3025 139.32 73.4649 139.581C73.7839 140.182 73.9026 140.869 73.8036 141.542Z" fill="#F08080"/>
<path d="M73.5766 141.501L73.4328 141.473C73.1126 141.408 72.7877 141.352 72.4629 141.301C72.7645 140.46 73.1543 139.837 73.3446 139.878C73.5349 139.92 73.637 140.622 73.5766 141.501Z" fill="white"/>
<path d="M67.5811 139.818C67.8471 140.102 68.082 140.414 68.2819 140.748C67.9245 140.711 67.5672 140.669 67.2145 140.622C67.0693 140.494 66.9049 140.389 66.7273 140.311C66.3755 140.145 66.0022 140.029 65.6182 139.967C66.0033 139.748 66.4952 139.502 66.9871 139.26H67.0103C67.2151 139.431 67.4059 139.617 67.5811 139.818Z" fill="white"/>
<path d="M69.3817 140.896L68.2819 140.771C67.9246 140.734 67.5672 140.692 67.2145 140.645L66.7087 140.571C66.1611 140.497 65.6228 140.413 65.0845 140.306C64.8107 140.255 64.5369 140.199 64.2678 140.134C63.6688 140 63.0771 139.836 62.4951 139.641C61.8315 139.418 61.1632 139.176 60.495 138.897C60.2305 138.79 59.966 138.683 59.7014 138.567C59.0193 138.27 58.3371 137.949 57.6781 137.605C56.4199 136.964 55.221 136.213 54.0956 135.36C53.4526 134.917 52.9205 134.332 52.541 133.649C52.8964 133.496 53.2775 133.413 53.664 133.402C54.1281 133.402 54.8752 133.681 55.2233 133.314C55.3671 133.17 55.4089 132.728 55.5017 132.533C55.7394 132.004 56.174 131.589 56.7129 131.376C57.8359 130.962 58.8476 131.468 59.7943 132.054L60.0402 132.208C60.3233 132.389 60.6064 132.575 60.8801 132.733C61.1106 132.863 61.3571 132.961 61.6134 133.026C61.9571 133.121 62.3078 133.19 62.6621 133.23H62.7317C63.8826 133.379 65.0845 133.454 65.7945 134.341C66.148 134.842 66.2958 135.459 66.2075 136.066C66.1704 136.829 66.0405 137.531 66.4721 138.214C66.674 138.511 66.9288 138.768 67.2238 138.972C67.2745 139.011 67.3272 139.049 67.3816 139.083C67.5394 139.199 67.7018 139.306 67.8457 139.413C68.4584 139.791 68.9824 140.297 69.3817 140.896Z" fill="#EBEBEB"/>
<path d="M65.4043 138.47C65.2108 139.131 64.8127 139.714 64.2674 140.134C63.6684 140 63.0767 139.836 62.4947 139.641C61.8311 139.418 61.1628 139.177 60.4946 138.898C60.2301 138.791 59.9656 138.684 59.701 138.568C59.0189 138.27 58.3367 137.949 57.6777 137.605C57.3204 136.555 56.977 133.593 57.1441 133.347C57.687 132.594 58.7497 132.213 59.7939 132.055C61.1164 131.85 62.4019 131.999 62.5225 132.199C62.6198 132.457 62.6807 132.728 62.7035 133.003C62.7035 133.077 62.7035 133.161 62.736 133.24C62.8845 134.286 63.0191 135.727 63.1072 135.843L63.2047 135.946C63.6595 136.42 65.4925 138.177 65.4043 138.47Z" fill="#F08080"/>
<path d="M57.4692 133.337C57.5202 133.588 58.7361 133.718 59.9565 133.514C61.177 133.309 62.5181 132.742 62.2768 132.296C62.1422 132.035 60.7454 132.021 59.5342 132.296C58.323 132.57 57.4274 133.114 57.4692 133.337Z" fill="white"/>
<path d="M63.2048 135.946L63.1398 136.011C62.2442 136.81 61.2047 137.373 60.6339 138.498C60.5725 138.625 60.5258 138.759 60.4947 138.898C60.2302 138.791 59.9657 138.684 59.7012 138.568C60.2209 137.475 61.1444 136.736 61.7709 135.709C62.2271 134.949 62.5313 134.107 62.6665 133.231C62.6665 133.156 62.6944 133.077 62.7036 133.003C62.7036 133.077 62.7036 133.161 62.7361 133.24C62.8846 134.286 63.0192 135.727 63.1074 135.843L63.2048 135.946Z" fill="white"/>
<path opacity="0.8" d="M80.5843 139.562L80.459 139.59L80.2038 139.641C80.2038 139.641 79.1179 141.445 78.4961 141.966C76.9216 142.023 75.3459 141.888 73.8044 141.561L73.5771 141.519L73.4332 141.491C73.113 141.426 72.7882 141.37 72.4633 141.319C71.447 141.152 70.4122 141.031 69.382 140.915L68.2821 140.789C67.9248 140.752 67.5675 140.71 67.2148 140.664L66.709 140.59C66.709 140.51 66.709 140.431 66.709 140.352C66.7489 139.988 66.8526 139.634 67.0153 139.306C67.0137 139.293 67.0137 139.278 67.0153 139.265C67.0653 139.162 67.131 139.068 67.2102 138.986C67.2901 138.892 67.3971 138.825 67.5164 138.795L68.6255 138.558L69.2381 138.428L73.2615 137.563C73.2936 137.677 73.3454 137.784 73.4146 137.879C73.4246 137.896 73.4395 137.909 73.4573 137.917C73.4751 137.924 73.4948 137.926 73.5138 137.922C73.5327 137.918 73.5499 137.908 73.5629 137.894C73.5759 137.879 73.5841 137.861 73.5863 137.842C73.6152 137.727 73.6262 137.607 73.6188 137.489L73.9529 137.414C73.9869 137.527 74.0386 137.634 74.1061 137.73C74.1177 137.746 74.1335 137.758 74.1516 137.765C74.1697 137.772 74.1894 137.773 74.2083 137.769C74.2273 137.766 74.2448 137.756 74.2587 137.743C74.2727 137.729 74.2825 137.712 74.2871 137.693C74.2999 137.576 74.2999 137.457 74.2871 137.34L74.6258 137.266C74.6579 137.379 74.7098 137.486 74.779 137.582C74.7898 137.598 74.8052 137.61 74.8231 137.617C74.841 137.625 74.8607 137.626 74.8796 137.622C74.8985 137.618 74.9157 137.609 74.9292 137.595C74.9427 137.581 74.9518 137.564 74.9553 137.545C74.9799 137.428 74.9893 137.31 74.9831 137.191L75.3219 137.117C75.3569 137.229 75.4085 137.336 75.4751 137.433C75.4859 137.449 75.5013 137.461 75.5192 137.469C75.5371 137.476 75.5568 137.477 75.5757 137.473C75.5945 137.47 75.6118 137.46 75.6253 137.446C75.6388 137.432 75.6479 137.415 75.6514 137.396C75.6711 137.277 75.6819 137.158 75.6839 137.038L76.1247 136.945L77.09 136.736C77.6097 136.629 79.7119 138.074 79.8418 138.163L80.227 138.079L80.3105 138.474L80.5843 139.562Z" fill="#EBEBEB"/>
<path d="M81.5616 139.515L81.1789 137.724C81.1516 137.595 81.0258 137.514 80.898 137.541L80.417 137.644C80.2892 137.672 80.2077 137.798 80.2351 137.926L80.6177 139.717C80.6451 139.845 80.7709 139.927 80.8987 139.899L81.3797 139.796C81.5075 139.769 81.5889 139.643 81.5616 139.515Z" fill="#37474F"/>
<path d="M53.7012 174.224C52.4158 173.94 50.8704 173.987 49.6639 173.424C48.4573 172.862 47.4411 171.699 46.2252 171.03C46.1046 170.965 45.9561 171.095 46.0535 171.216C46.8981 172.267 48.1232 173.619 49.3808 174.163C50.6384 174.707 52.3879 174.489 53.7105 174.428C53.8404 174.424 53.8079 174.247 53.7012 174.224Z" fill="#263238"/>
<path d="M86.9041 166.734C85.1592 167.692 83.8738 169.356 82.0083 170.142C80.1428 170.928 77.4095 170.691 75.4187 170.523C75.3676 170.523 75.3676 170.598 75.4187 170.607C77.609 170.886 80.1753 171.746 82.3238 170.886C84.0873 170.179 85.9528 168.385 87.0572 166.888C87.1315 166.79 86.9969 166.683 86.9041 166.734Z" fill="#263238"/>
<path d="M76.296 175.86C73.6276 176.516 71.0568 177.506 68.4534 178.366C65.85 179.226 62.9914 178.617 60.3138 178.245C60.1792 178.245 60.1143 178.417 60.2535 178.459C62.7037 179.189 65.4788 180.165 68.0357 179.426C70.9072 178.55 73.7011 177.436 76.3888 176.097C76.5095 176.032 76.412 175.823 76.296 175.86Z" fill="#263238"/>
<path d="M63.4511 165.531C62.1584 164.589 60.7803 163.77 59.3349 163.086C57.8917 162.458 56.4067 161.933 54.9495 161.342C54.1746 161.031 53.0933 160.71 52.49 160.078C51.8867 159.446 51.613 158.348 51.3345 157.498C50.7853 155.857 50.3754 154.173 50.1094 152.463C50.1094 152.351 49.9052 152.379 49.9191 152.486C50.1184 154.297 50.4394 156.093 50.8797 157.86C51.2556 159.283 51.5201 160.603 52.8891 161.347C56.2025 163.151 60.1191 163.76 63.3119 165.768C63.4604 165.861 63.5903 165.628 63.4511 165.531Z" fill="#263238"/>
<path d="M69.9804 144.704C63.1216 144.16 56.9543 140.933 50.7127 138.293C50.6849 138.293 50.657 138.321 50.6849 138.339C56.5367 141.942 63.0381 144.587 69.9804 144.75C70.0129 144.75 70.0129 144.708 69.9804 144.704Z" fill="#263238"/>
<path d="M81.1871 144.369C78.7161 145.079 76.1264 145.277 73.5765 144.95C73.5255 144.95 73.5162 145.029 73.5765 145.034C76.0778 145.401 79.0153 146.075 81.2567 144.499C81.3031 144.457 81.2706 144.346 81.1871 144.369Z" fill="#263238"/>
<path d="M64.4159 148.567C61.9703 147.861 59.4273 147.475 56.991 146.708C54.6492 145.908 52.4179 144.815 50.3503 143.454C50.2992 143.421 50.2528 143.505 50.3039 143.537C52.2204 144.867 54.1741 146.285 56.397 147.066C58.8982 147.944 61.7383 148.367 64.3556 148.767C64.4762 148.758 64.5273 148.605 64.4159 148.567Z" fill="#263238"/>
<path d="M294.723 14.644H225.88V168.129H294.723V14.644Z" fill="#37474F"/>
<path d="M294.719 14.644H225.88V24.5042L294.719 20.6596V14.644Z" fill="#263238"/>
<path d="M294.724 14.644H291.197V168.129H294.724V14.644Z" fill="#455A64"/>
<path d="M300 168.134H220.595V178.352H300V168.134Z" fill="#DBDBDB"/>
<path d="M286.821 86.854H281.085V102.581H286.821V86.854Z" fill="#F08080"/>
<path opacity="0.2" d="M283.953 92.2233C285.229 92.2233 286.264 91.1556 286.264 89.8385C286.264 88.5213 285.229 87.4536 283.953 87.4536C282.677 87.4536 281.642 88.5213 281.642 89.8385C281.642 91.1556 282.677 92.2233 283.953 92.2233Z" fill="black"/>
<path d="M268.24 12.5891H252.893L250.211 3.64014H270.388L268.24 12.5891Z" fill="#455A64"/>
<path d="M264.973 11.5383H255.961C255.581 11.5394 255.212 11.4185 254.906 11.1934C254.6 10.9683 254.375 10.6508 254.262 10.2877L253.255 6.922C253.18 6.65996 253.167 6.3839 253.217 6.11589C253.267 5.84788 253.38 5.59537 253.545 5.37853C253.71 5.16168 253.923 4.98653 254.168 4.86708C254.412 4.74762 254.682 4.68717 254.954 4.69056H265.78C266.042 4.68999 266.3 4.74825 266.536 4.86104C266.772 4.97383 266.979 5.13828 267.143 5.34222C267.307 5.54617 267.423 5.78441 267.483 6.03934C267.543 6.29427 267.544 6.55937 267.488 6.81508L266.681 10.1808C266.588 10.5657 266.37 10.9085 266.06 11.1546C265.751 11.4006 265.368 11.5357 264.973 11.5383Z" fill="#F08080"/>
<path d="M253.218 0.21875H267.381C268.179 0.21875 268.943 0.536129 269.507 1.10107C270.071 1.66601 270.388 2.43224 270.388 3.23119V3.63563H250.211V3.23119C250.211 2.43224 250.528 1.66601 251.092 1.10107C251.656 0.536129 252.42 0.21875 253.218 0.21875Z" fill="#37474F"/>
<path opacity="0.5" d="M292.608 168.297H228.182L253.242 5.98779H267.548L292.608 168.297Z" fill="#F08080"/>
<path opacity="0.5" d="M296.004 168.297C295.884 172.834 279.99 176.507 260.397 176.507C240.805 176.507 224.906 172.834 224.79 168.297H296.004Z" fill="#F08080"/>
<path d="M177.28 194C204.172 194 225.973 192.102 225.973 189.76C225.973 187.419 204.172 185.521 177.28 185.521C150.387 185.521 128.586 187.419 128.586 189.76C128.586 192.102 150.387 194 177.28 194Z" fill="#EBEBEB"/>
<path d="M195.679 50.1979C194.078 50.8023 192.844 52.1504 191.377 53.0244C190.765 53.387 190.166 53.6892 189.521 53.3545C189.242 53.1765 188.977 52.9776 188.728 52.7594C188.458 52.5796 188.152 52.4611 187.831 52.4121C187.51 52.3631 187.183 52.3849 186.871 52.4758C185.943 52.699 185.113 53.3452 184.236 53.7775C183.533 54.1393 182.757 54.3364 181.966 54.354C180.452 54.3496 178.985 53.8189 177.818 52.8524C177.094 52.2806 176.518 51.5321 175.827 50.9231C175.135 50.3141 170.722 48.6592 170.258 46C169.97 44.3125 170.258 42.4623 172.486 40.3145C172.927 39.8822 173.414 39.4824 173.548 38.8362C173.612 38.305 173.555 37.7663 173.381 37.2603C173.178 36.6845 173.154 36.0604 173.312 35.4705C173.534 34.8661 174.068 34.5082 174.504 34.0758C175.321 33.3041 175.34 32.035 174.936 30.4311C174.784 29.7539 174.788 29.0507 174.949 28.3755C175.11 27.7003 175.423 27.0709 175.864 26.5354C176.412 25.9262 177.036 25.3902 177.72 24.9409C178.156 24.637 178.523 24.245 178.798 23.7902C179.073 23.3354 179.25 22.8278 179.317 22.3003C179.604 20.7895 180.314 19.711 181.762 19.1856C183.024 18.686 184.41 18.5965 185.725 18.93C187.156 18.2699 188.768 18.1175 190.296 18.4976C191.712 18.8556 192.784 19.9666 193.758 21.0219C194.631 21.9517 195.406 22.9651 195.294 24.3644C195.229 25.1733 194.937 25.9497 194.877 26.7539C194.802 27.7813 195.294 28.4972 195.897 29.2271C196.803 30.2119 197.359 31.4684 197.48 32.802C197.522 33.9131 196.25 35.4705 197.313 37.2324C198.241 38.7897 199.99 40.6585 200.287 42.5134C201.206 48.2547 197.211 49.6168 195.679 50.1979Z" fill="#263238"/>
<path d="M176.895 50.8994C174.806 50.2207 171.822 50.1138 170.774 48.138C171.64 48.8891 172.677 49.4144 173.795 49.6675C173.827 49.6675 173.832 49.621 173.795 49.6163C172.558 49.3461 171.437 48.6961 170.588 47.7568C170.407 47.225 170.339 46.6614 170.388 46.1018C170.491 44.4143 171.317 43.201 172.198 41.8575C172.538 41.3427 172.824 40.7944 173.052 40.2211C173.16 40.0838 173.256 39.9376 173.34 39.7841C173.92 38.7148 173.609 37.5387 173.252 36.4741C173.252 36.4741 173.224 36.4741 173.228 36.4741C173.413 37.0995 173.513 37.7468 173.525 38.3987C173.406 38.8928 173.251 39.3776 173.061 39.8492C172.602 40.4294 172.066 40.9453 171.47 41.3833C170.542 42.1875 169.637 43.2428 169.419 44.5073C169.31 45.0969 169.343 45.704 169.516 46.2781C169.689 46.8522 169.996 47.3767 170.412 47.8079C171.279 50.3927 174.695 50.3834 176.843 50.9784C176.908 50.9784 176.941 50.9134 176.895 50.8994ZM170.003 46.7945C169.214 45.1349 169.725 43.4799 170.931 42.1829C171.488 41.5925 172.217 41.109 172.788 40.5046C172.718 40.6488 172.648 40.7882 172.569 40.9323C172.105 41.7505 171.516 42.4525 171.061 43.2567C170.356 44.4758 170.088 45.8993 170.3 47.2919C170.302 47.3089 170.302 47.3261 170.3 47.3431C170.19 47.1667 170.09 46.9835 170.003 46.7945Z" fill="#263238"/>
<path d="M178.055 24.6663C177.152 25.2794 176.283 25.9404 175.451 26.6467C174.877 27.104 174.487 27.755 174.356 28.4784C174.248 29.211 174.392 29.9588 174.765 30.5982C174.904 30.8632 175.038 31.1375 175.154 31.4118C175.134 31.8912 175.002 32.3592 174.769 32.7785C174.305 33.5781 173.456 34.0012 172.983 34.8101C172.226 36.121 172.751 37.3344 173.182 38.636C172.88 37.5761 172.416 36.5069 172.876 35.3819C173.256 34.4753 173.999 34.0523 174.607 33.355C174.975 32.9073 175.214 32.3671 175.298 31.793C175.646 32.7785 175.693 33.778 174.76 34.6567C174.723 34.6985 174.76 34.7636 174.816 34.731C175.966 33.8013 175.846 32.5182 175.354 31.342C175.387 30.6894 175.32 30.0355 175.154 29.4035C175.154 29.3338 175.038 29.3709 175.043 29.436C175.075 29.9009 175.14 30.4169 175.15 30.9051L175.062 30.7284C174.384 29.4639 174.231 28.06 175.317 26.9257C176.134 26.0749 177.173 25.4566 178.069 24.6849C178.106 24.6849 178.078 24.6477 178.055 24.6663Z" fill="#263238"/>
<path d="M163.539 188.3C162.425 187.914 137.06 168.343 136.568 166.985C136.373 166.474 139.004 162.602 142.313 158.022L142.42 157.878C143.102 156.949 155.306 141.143 155.306 141.143L171.989 154.355L158.898 170.319L158.676 170.593C158.676 170.593 165.042 182.433 165.428 183.986C165.813 185.539 164.639 188.686 163.539 188.3Z" fill="#EB9481"/>
<path d="M163.539 188.301C162.425 187.915 137.06 168.343 136.568 166.986C136.415 166.586 138.006 164.108 140.28 160.845C144.564 166.8 160.3 181.592 162.648 181.741C163.845 181.816 163.339 179.882 162.495 177.822C163.933 180.612 165.279 183.303 165.437 183.987C165.817 185.53 164.639 188.687 163.539 188.301Z" fill="#263238"/>
<path d="M147.404 150.993L163.715 164.596C163.715 164.596 189.842 133.728 190.798 129.079C191.884 123.807 194.914 82.5068 194.845 80.4474C194.761 77.951 192.014 66.9658 192.014 66.9658H172.444C172.444 66.9658 169.706 120.976 169.136 122.649C168.523 124.458 147.404 150.993 147.404 150.993Z" fill="#37474F"/>
<path d="M145.673 153.578L147.965 149.246L164.922 164.136L161.59 167.065L145.673 153.578Z" fill="#455A64"/>
<path d="M165.256 160.5C162.731 158.06 152.893 150.231 151.668 149.589C151.64 149.589 151.603 149.622 151.622 149.645C152.513 150.705 160.903 157.59 165.191 160.579C165.237 160.612 165.298 160.537 165.256 160.5Z" fill="#263238"/>
<path d="M192.983 75.0968C192.722 75.0172 192.455 74.9551 192.185 74.9108C191.9 74.832 191.624 74.7262 191.359 74.5947C190.807 74.3141 190.299 73.9539 189.851 73.5255C189.351 72.9855 188.958 72.3542 188.696 71.666C188.524 71.2708 187.726 69.1695 187.716 69.1509C187.707 69.1323 187.633 69.1509 187.647 69.1835C187.698 69.4764 188.25 71.294 188.408 71.745C188.656 72.5455 189.068 73.2851 189.619 73.916C190.091 74.404 190.66 74.7873 191.29 75.041C191.576 75.1624 191.877 75.2437 192.185 75.2827C192.458 75.3469 192.743 75.3307 193.007 75.2362C193.048 75.2037 193.021 75.1107 192.983 75.0968Z" fill="#263238"/>
<path d="M175.669 67.9331L175.261 78.7788L174.797 89.6245L173.748 111.311C173.553 114.923 173.363 118.536 173.136 122.148C173.108 122.613 173.071 123.077 173.029 123.542C173.027 123.614 173.013 123.685 172.987 123.751L172.899 123.923C172.839 124.03 172.778 124.128 172.713 124.226C172.593 124.421 172.463 124.607 172.333 124.793C171.809 125.537 171.261 126.262 170.713 126.982C169.623 128.424 168.5 129.841 167.377 131.259C165.128 134.092 162.858 136.909 160.569 139.711L153.668 148.079L160.402 139.571C162.645 136.736 164.879 133.894 167.103 131.045C168.21 129.62 169.309 128.185 170.398 126.741C170.941 126.02 171.484 125.295 171.999 124.56L172.37 124.003C172.477 123.817 172.63 123.631 172.621 123.473C172.658 123.036 172.695 122.599 172.718 122.143C172.932 118.531 173.108 114.919 173.289 111.307L174.43 89.6245L175.029 78.7881L175.669 67.9331Z" fill="#263238"/>
<path d="M191.188 126.196C191.044 127.526 190.914 128.521 190.798 129.074C190.26 131.677 181.781 142.556 174.454 151.602L169.428 119.939C170.324 108.703 172.44 66.9751 172.44 66.9751H182.185L191.188 126.196Z" fill="#263238"/>
<path d="M219.105 187.543C218.07 188.114 186.57 193.842 185.229 193.298C184.718 193.098 183.614 188.547 182.444 183.01C182.444 182.954 178.667 162.049 178.667 162.049L197.628 158.511L202.733 179.263C202.733 179.263 215.768 182.471 217.175 183.229C218.581 183.986 220.154 186.975 219.105 187.543Z" fill="#EB9481"/>
<path d="M219.105 187.542C218.07 188.114 186.57 193.841 185.229 193.293C184.83 193.139 184.064 190.294 183.182 186.403C190.463 187.212 211.954 185.436 213.657 183.791C214.516 182.954 212.729 182.015 210.65 181.28C213.685 182.085 216.567 182.893 217.189 183.228C218.59 183.981 220.154 186.975 219.105 187.542Z" fill="#263238"/>
<path d="M188.134 66.9751C188.134 66.9751 187.619 75.343 185.308 81.3306C185.308 81.3306 181.976 83.4087 181.628 83.7387L201.443 173.242L181.113 177.203C181.113 177.203 173.122 133.848 172.444 130.878C171.354 126.108 162.699 85.5378 162.337 83.232C161.534 78.4112 165.98 66.9937 165.98 66.9937L188.134 66.9751Z" fill="#37474F"/>
<path d="M199.369 168.752C193.8 169.593 183.085 171.862 181.772 172.41C181.739 172.41 181.772 172.48 181.772 172.48C183.196 172.457 196.218 169.867 199.374 168.854C199.387 168.853 199.4 168.847 199.409 168.837C199.418 168.827 199.423 168.814 199.422 168.8C199.422 168.787 199.416 168.774 199.406 168.765C199.396 168.756 199.382 168.751 199.369 168.752Z" fill="#263238"/>
<path d="M168.481 75.102C168.897 75.0424 169.315 75.0036 169.734 74.9858C170.171 74.9338 170.603 74.8515 171.029 74.7394C171.841 74.5357 172.621 74.223 173.349 73.8097C174.049 73.3649 174.627 72.7511 175.029 72.0245C175.266 71.6433 176.347 69.5792 176.356 69.5653C176.366 69.5513 176.486 69.5653 176.477 69.6071C176.417 69.8954 175.707 71.6852 175.488 72.1314C175.119 72.9804 174.515 73.7062 173.748 74.2234C172.543 74.9421 171.173 75.3375 169.771 75.3717C169.33 75.4111 168.885 75.3702 168.458 75.2508C168.384 75.2043 168.425 75.1113 168.481 75.102Z" fill="#263238"/>
<path d="M185.776 81.1077C183.922 81.7633 182.129 82.5799 180.417 83.5483C180.402 83.5551 180.39 83.5675 180.385 83.5827C180.379 83.598 180.38 83.6149 180.386 83.6297C180.393 83.6445 180.406 83.656 180.421 83.6616C180.436 83.6673 180.453 83.6667 180.468 83.6599C182.273 82.9021 184.111 82.1769 185.874 81.3355C185.904 81.3225 185.928 81.2981 185.94 81.2676C185.952 81.2371 185.952 81.203 185.939 81.1728C185.926 81.1426 185.902 81.1187 185.871 81.1065C185.841 81.0943 185.807 81.0947 185.776 81.1077Z" fill="#263238"/>
<path d="M186.463 68.7509C186.463 68.6859 186.347 68.6719 186.347 68.7509C186.329 70.7609 186.21 72.7686 185.99 74.7665C185.902 75.6963 185.108 80.81 183.507 80.4241C183.238 80.359 183.103 80.0941 183.066 79.685C183.075 79.1552 183.152 78.6288 183.294 78.1183C183.479 77.0444 183.632 75.9706 183.734 74.8641C183.942 72.855 183.942 70.8298 183.734 68.8207C183.731 68.8092 183.724 68.7991 183.714 68.7919C183.705 68.7847 183.693 68.7808 183.681 68.7808C183.669 68.7808 183.657 68.7847 183.648 68.7919C183.638 68.7991 183.631 68.8092 183.628 68.8207C183.65 71.6201 183.462 74.4173 183.066 77.1886C182.853 78.5228 182.161 80.5218 183.553 80.7403C184.946 80.9588 185.92 77.6069 186.101 76.6911C186.563 74.0711 186.684 71.4022 186.463 68.7509Z" fill="#263238"/>
<path d="M183.549 80.5547C183.403 80.8996 183.279 81.2537 183.178 81.6146C183.071 81.8933 183.017 82.1899 183.02 82.4886C183.02 82.5444 183.099 82.549 183.132 82.5118C183.295 82.2485 183.417 81.9616 183.493 81.6611C183.619 81.331 183.749 81.0056 183.865 80.6756C183.868 80.6377 183.858 80.5999 183.838 80.5678C183.817 80.5357 183.787 80.5111 183.752 80.4975C183.716 80.4839 183.678 80.4822 183.641 80.4925C183.605 80.5028 183.572 80.5246 183.549 80.5547Z" fill="#263238"/>
<path d="M167.646 66.9751C167.093 69.0996 166.569 71.2334 166.091 73.3765C165.613 75.5196 165.163 77.672 164.894 79.8477L164.815 80.6612C164.815 80.9309 164.815 81.2005 164.792 81.4701L165.033 83.0833L165.645 86.3374L166.954 92.7946L172.328 118.596L177.706 144.397L180.379 157.302L183.029 170.197L180.17 157.33L177.386 144.452L171.892 118.67C170.114 110.065 168.323 101.469 166.625 92.8458L165.376 86.3746L164.796 83.1204L164.564 81.4748C164.573 80.9196 164.615 80.3654 164.69 79.8151C164.996 77.6302 165.488 75.4871 165.998 73.3486C166.509 71.2102 167.056 69.1089 167.646 66.9751Z" fill="#263238"/>
<path d="M181.4 178.966L179.386 174.494L201.522 170.198L201.791 174.633L181.4 178.966Z" fill="#455A64"/>
<path d="M191.076 39.7847C196.301 43.0389 211.917 55.442 210.748 60.5743C209.625 65.502 203.954 65.8925 199.086 61.2391C195.605 57.9105 191.15 50.305 188.445 44.8473C186.25 40.4216 186.245 36.7584 191.076 39.7847Z" fill="#EB9481"/>
<path d="M191.076 39.7847C196.301 43.0389 211.917 55.442 210.748 60.5743C209.625 65.502 203.954 65.8925 199.086 61.2391C195.605 57.9105 191.15 50.305 188.445 44.8473C186.25 40.4216 186.245 36.7584 191.076 39.7847Z" fill="#F08080"/>
<path opacity="0.1" d="M208.195 64.0187C205.824 65.1763 202.283 64.293 199.086 61.2294C195.605 57.9008 191.15 50.2954 188.445 44.8377C187.438 42.8061 186.89 40.9373 187.053 39.7983L208.195 64.0187Z" fill="black"/>
<path d="M192.775 58.7561L192.009 66.9753H165.975C165.975 66.9753 173.4 46.4461 180.774 39.5147C183.712 36.7579 186.436 37.5761 188.515 39.6867C188.979 40.1516 194.719 49.6445 195.202 53.0288C195.601 55.8088 192.775 58.7561 192.775 58.7561Z" fill="#F08080"/>
<path d="M189.15 57.1988C187.839 57.2315 186.534 57.3871 185.252 57.6637C184.607 57.8125 183.971 58.0031 183.34 58.2076C183.02 58.3099 182.704 58.3982 182.384 58.4866C182.058 58.5881 181.719 58.6398 181.377 58.64C181.349 58.64 181.345 58.6958 181.377 58.6958C181.692 58.7453 182.01 58.7671 182.328 58.7609C182.641 58.7404 182.952 58.6937 183.257 58.6214C183.911 58.4773 184.561 58.2913 185.21 58.1565C186.524 57.8497 187.841 57.5382 189.164 57.3523C189.215 57.329 189.215 57.1942 189.15 57.1988Z" fill="#263238"/>
<path d="M192.194 58.9607C191.149 58.7293 190.088 58.5739 189.02 58.4958C188.485 58.4656 187.949 58.4656 187.415 58.4958C187.155 58.4958 186.899 58.5237 186.644 58.5423C186.389 58.5609 186.078 58.6306 185.795 58.6446C185.767 58.6446 185.758 58.705 185.795 58.705C186.06 58.705 186.324 58.7561 186.593 58.7701L187.391 58.8166C187.925 58.8445 188.459 58.8863 188.992 58.9095C190.06 58.9607 191.127 59.0211 192.19 59.1187C192.245 59.0816 192.25 58.9746 192.194 58.9607Z" fill="#263238"/>
<path d="M183.192 43.5411C182.681 46.5256 171.753 67.343 171.275 68.3332C169.943 71.1225 160.527 76.5244 159.033 69.4629C157.539 62.4013 171.335 47.1857 177.646 41.3096C182.157 37.1071 184.139 37.995 183.192 43.5411Z" fill="#F08080"/>
<path d="M173.149 64.6788C173.683 63.3911 174.268 62.1266 174.853 60.8668C175.437 59.607 176.054 58.3611 176.672 57.1152C177.289 55.8693 177.925 54.6327 178.584 53.3962L179.577 51.5599C179.92 50.9555 180.254 50.3419 180.611 49.7422C180.347 50.3837 180.059 51.016 179.781 51.6575L178.908 53.5496C178.324 54.8141 177.706 56.0599 177.089 57.3058C176.472 58.5517 175.832 59.7929 175.173 61.0249C174.514 62.2568 173.855 63.4795 173.149 64.6788Z" fill="#263238"/>
<path d="M178.658 53.7681C178.862 53.3398 179.123 52.9411 179.433 52.5827C179.735 52.2139 180.087 51.8886 180.477 51.6157C180.275 52.0461 180.014 52.4466 179.702 52.8058C179.399 53.1722 179.048 53.4959 178.658 53.7681Z" fill="#263238"/>
<path d="M182.737 39.5754C182.946 40.0402 185.953 42.876 188.227 42.3414C188.969 42.1694 188.194 38.0738 188.194 38.0738V37.7577L188.357 33.3413L182.788 31.068L181.99 30.7798C181.99 30.7798 182.027 31.9885 182.087 33.4993C182.087 33.5691 182.087 33.6388 182.087 33.7132C182.087 33.7876 182.087 33.8805 182.087 33.9596C182.087 34.1827 182.087 34.4245 182.11 34.643C182.134 34.8614 182.11 34.987 182.143 35.1683C182.175 35.3496 182.166 35.5309 182.175 35.7168C182.275 37.0143 182.462 38.3035 182.737 39.5754Z" fill="#EB9481"/>
<path d="M188.366 33.3413L188.245 36.6745C186.423 37.531 184.39 37.8317 182.398 37.5392C182.329 36.9767 182.259 36.3444 182.208 35.7168C182.208 35.5309 182.18 35.3542 182.171 35.1683C182.161 34.9823 182.171 34.815 182.138 34.643C182.106 34.4709 182.138 34.1781 182.115 33.9596C182.115 33.8805 182.115 33.7969 182.115 33.7132C182.115 33.6295 182.115 33.5691 182.115 33.4993C182.055 31.9885 182.022 30.7798 182.022 30.7798L182.816 31.068L188.366 33.3413Z" fill="#263238"/>
<path d="M176.686 26.9818C174.876 34.5269 179.178 36.4654 180.802 36.8513C182.278 37.2046 187.34 38.2459 189.921 30.9101C192.501 23.5743 189.573 20.3712 186.245 19.381C182.918 18.3908 178.5 19.4414 176.686 26.9818Z" fill="#EB9481"/>
<path d="M189.239 31.1187C187.652 30.7189 188.45 27.0464 188.45 27.0464C188.45 27.0464 187.601 26.4653 186.923 24.3687C186.923 24.3687 187.29 26.1306 188.19 27.0371C188.343 27.1905 183.006 25.331 183.489 20.9936C182.773 22.0091 181.847 22.859 180.776 23.4861C179.704 24.1132 178.51 24.5029 177.275 24.629C177.145 24.629 178.542 20.9471 179.554 20.2544C180.139 19.8493 180.774 19.5212 181.443 19.2782C183.379 18.4429 185.564 18.4012 187.531 19.162C190.779 20.4543 192.13 24.5174 192.037 26.0283C191.847 29.0128 189.99 31.3093 189.239 31.1187Z" fill="#263238"/>
<path d="M187.995 27.0883C185.043 26.2422 183.127 23.769 183.605 20.6589C183.607 20.6419 183.603 20.6246 183.593 20.6104C183.583 20.5962 183.569 20.5861 183.552 20.582C183.535 20.578 183.518 20.5803 183.502 20.5885C183.487 20.5967 183.476 20.6102 183.47 20.6264C182.328 23.6249 185.131 26.6931 188.008 27.1347C188.078 27.158 188.064 27.1069 187.995 27.0883Z" fill="#263238"/>
<path d="M183.563 20.8916H183.535C182.394 22.2862 180.96 24.8756 178.76 24.2295C178.7 24.2295 178.667 24.2992 178.727 24.3178C180.783 25.1127 182.936 22.621 183.563 20.8916Z" fill="#263238"/>
<path d="M188.598 31.2022C188.598 31.2022 190.631 29.0591 191.624 29.8076C192.617 30.556 190.839 33.8474 189.494 34.131C189.324 34.1783 189.146 34.1908 188.971 34.1677C188.796 34.1446 188.627 34.0864 188.475 33.9965C188.323 33.9067 188.191 33.7871 188.086 33.6449C187.981 33.5026 187.906 33.3407 187.865 33.1687L188.598 31.2022Z" fill="#EB9481"/>
<path d="M191.076 30.747C191.099 30.747 191.099 30.7796 191.076 30.7842C190.148 31.012 189.535 31.7698 189.076 32.5787C189.141 32.4968 189.223 32.43 189.317 32.383C189.41 32.336 189.513 32.3098 189.617 32.3063C189.722 32.3028 189.826 32.322 189.922 32.3626C190.019 32.4032 190.105 32.4642 190.176 32.5415C190.199 32.5415 190.176 32.5973 190.143 32.588C189.993 32.5106 189.823 32.4829 189.656 32.5088C189.489 32.5347 189.335 32.6129 189.215 32.7321C189.015 32.9286 188.838 33.1469 188.686 33.3829C188.631 33.4526 188.496 33.3829 188.538 33.3039C188.714 32.137 189.837 30.6773 191.076 30.747Z" fill="#263238"/>
<path d="M178.389 25.5497C178.564 25.517 178.74 25.4937 178.918 25.48C179.101 25.4298 179.295 25.4413 179.47 25.5125C179.521 25.5462 179.56 25.5959 179.58 25.6539C179.6 25.7119 179.601 25.775 179.581 25.8333C179.527 25.9419 179.445 26.0337 179.343 26.0992C179.24 26.1647 179.123 26.2013 179.001 26.2052C178.756 26.2533 178.501 26.2086 178.287 26.0797C178.241 26.0465 178.205 26.0008 178.184 25.9481C178.164 25.8953 178.158 25.8377 178.169 25.782C178.18 25.7263 178.206 25.6749 178.245 25.6337C178.284 25.5925 178.334 25.5634 178.389 25.5497Z" fill="#263238"/>
<path d="M183.92 26.805C183.79 26.6795 183.647 26.5819 183.507 26.4703C183.378 26.3301 183.204 26.2382 183.015 26.21C182.955 26.2116 182.896 26.2335 182.849 26.2722C182.802 26.3109 182.769 26.3643 182.756 26.4238C182.746 26.5451 182.77 26.6666 182.823 26.7761C182.876 26.8855 182.957 26.9789 183.057 27.0467C183.242 27.2134 183.482 27.3061 183.73 27.3071C183.787 27.3044 183.842 27.285 183.888 27.2515C183.934 27.218 183.969 27.1718 183.989 27.1185C184.01 27.0652 184.014 27.0071 184.002 26.9514C183.989 26.8957 183.961 26.8449 183.92 26.805Z" fill="#263238"/>
<path d="M182.194 28.4741C182.194 28.4741 182.227 28.5113 182.222 28.5299C182.073 29.0366 181.99 29.641 182.408 29.9246C182.408 29.9246 182.408 29.9571 182.408 29.9524C181.85 29.734 181.971 28.9297 182.194 28.4741Z" fill="#263238"/>
<path d="M182.788 28.0605C183.624 28.2093 183.252 29.8782 182.487 29.7341C181.721 29.59 182.101 27.935 182.788 28.0605Z" fill="#263238"/>
<path d="M183.094 28.1992C183.22 28.3247 183.326 28.5246 183.498 28.5804C183.67 28.6362 183.888 28.5013 184.055 28.3665C184.055 28.3665 184.083 28.3665 184.078 28.3665C184.013 28.6873 183.818 28.9848 183.47 28.9616C183.122 28.9383 183.006 28.6036 182.978 28.2643C182.974 28.2457 183.029 28.1666 183.094 28.1992Z" fill="#263238"/>
<path d="M179.126 27.7344C179.126 27.7344 179.08 27.7344 179.075 27.7716C178.982 28.2876 178.792 28.8687 178.286 28.9431V28.971C178.853 28.9942 179.122 28.2225 179.126 27.7344Z" fill="#263238"/>
<path d="M178.779 27.0795C177.962 26.8377 177.549 28.4741 178.315 28.7112C179.08 28.9483 179.461 27.2701 178.779 27.0795Z" fill="#263238"/>
<path d="M178.389 27.0976C178.235 27.1534 178.068 27.2789 177.924 27.251C177.781 27.2231 177.651 27.0046 177.576 26.7861C177.576 26.7861 177.553 26.7861 177.549 26.7861C177.46 27.0976 177.484 27.4509 177.771 27.5904C178.059 27.7298 178.305 27.4974 178.458 27.1999C178.491 27.1766 178.467 27.079 178.389 27.0976Z" fill="#263238"/>
<path d="M181.359 32.8947C181.21 32.997 181.057 33.1411 180.867 33.1272C180.675 33.0886 180.494 33.0111 180.333 32.8994C180.333 32.8994 180.296 32.8994 180.305 32.8994C180.362 33.0139 180.448 33.111 180.555 33.1805C180.662 33.25 180.786 33.2894 180.913 33.2945C181.024 33.2856 181.13 33.2437 181.217 33.1741C181.304 33.1045 181.368 33.0104 181.401 32.904C181.415 32.8994 181.377 32.8808 181.359 32.8947Z" fill="#263238"/>
<path d="M179.359 30.1986C179.359 30.1986 179.075 30.9424 178.992 31.305C179.698 31.4726 180.378 31.7386 181.011 32.0953C181.154 32.1836 181.187 32.0488 181.034 31.9001C180.576 31.4615 179.997 31.1701 179.372 31.0633C179.372 30.9564 179.837 29.9243 179.776 29.9057C179.488 29.8661 179.196 29.8661 178.908 29.9057C179.456 28.3391 180.245 26.87 180.765 25.3034C180.765 25.2476 180.704 25.2104 180.676 25.2569C179.78 26.8031 179.04 28.4352 178.468 30.1289C178.389 30.3288 179.196 30.2265 179.359 30.1986Z" fill="#263238"/>
<path d="M181.502 44.717C181.372 43.5966 180.658 42.267 180.361 41.6209C180.064 40.9747 178.885 39.8218 178.894 39.4127C178.904 39.0036 181.14 38.283 181.447 38.3574C181.753 38.4318 183.303 40.9561 183.614 41.937C183.925 42.9179 184.115 43.6896 184.115 43.6896L181.502 44.717Z" fill="#263238"/>
<path d="M191.809 43.6614C192.032 43.4754 191.345 40.2584 190.593 39.6587C189.842 39.059 185.025 38.8033 184.384 39.7889C183.744 40.7744 184.347 44.01 184.695 44.0844C185.043 44.1588 185.971 44.0844 186.166 43.8938C186.361 43.7032 185.939 41.6438 186.227 41.2951C186.607 40.8302 189.354 40.9976 189.596 41.3184C189.837 41.6391 190.06 43.4382 190.083 43.5544C190.106 43.6707 191.452 43.9635 191.809 43.6614Z" fill="#263238"/>
<path d="M176.068 71.5589C176.973 73.809 180.389 76.8586 182.505 77.3746C184.621 77.8906 198.645 80.6846 201.127 77.5838C203.387 74.762 200.71 53.554 197.099 46.6831C196.833 46.1433 196.496 45.6415 196.097 45.1908L196.018 45.1071C192.403 41.495 184.653 42.9129 183.674 43.15C182.152 43.5265 179.962 44.8189 178.7 47.8453C177.437 50.8717 175.14 69.3136 176.068 71.5589Z" fill="#37474F"/>
<path d="M184.203 70.62C184.329 72.1773 186.343 75.9335 188.932 76.9795C191.521 78.0255 201.123 77.5839 203.387 75.6732C203.712 75.3041 203.919 74.8458 203.981 74.3576C204.501 71.9635 202.733 67.7702 202 62.9076C201.327 58.4214 201.768 53.252 200.441 51.1321C200.207 50.7147 199.891 50.3494 199.512 50.0582C199.088 49.7655 198.636 49.5163 198.162 49.3144C195.533 48.2546 192.657 47.9629 189.869 48.473C188.18 48.817 186.769 49.5097 186.078 50.5928C184.31 53.3403 184.083 69.0719 184.203 70.62Z" fill="#DBDBDB"/>
<path opacity="0.1" d="M184.203 70.6201C184.329 72.1775 186.343 75.9337 188.932 76.9797C191.521 78.0257 201.123 77.5841 203.387 75.6734C203.712 75.3043 203.919 74.846 203.981 74.3578C202.237 75.3342 200.284 75.8763 198.287 75.9384C196.857 75.9991 195.424 75.9197 194.009 75.7013C192.617 75.4921 191.183 75.0876 190.083 74.0695C188.009 72.1449 187.47 68.6583 187.354 65.7575C187.31 62.5701 187.552 59.3852 188.078 56.2413C188.417 53.5993 189.015 50.9973 189.865 48.4731C188.176 48.8172 186.765 49.5098 186.073 50.593C184.31 53.3405 184.083 69.0721 184.203 70.6201Z" fill="black"/>
<path d="M186.384 64.5254H187.034C187.076 61.2713 187.54 52.4617 189.131 50.8347C190.723 49.2076 196.362 49.2959 198.659 50.2164C199.28 50.47 199.877 50.7812 200.441 51.1461C200.206 50.7298 199.89 50.3647 199.512 50.0723C199.085 49.7805 198.632 49.5299 198.157 49.3238C195.373 48.5614 190.306 48.6962 188.695 50.3419C186.565 52.4989 186.394 64.0373 186.384 64.5254Z" fill="#263238"/>
<path d="M178.909 61.3364L179.554 61.3921C180.83 48.3522 181.433 47.9106 183.967 46.0139L184.055 45.9488C186.519 44.0892 192.028 44.661 194.162 45.2003C195.238 45.4691 196.24 45.9758 197.095 46.6833C196.829 46.1435 196.492 45.6417 196.093 45.191C195.532 44.8962 194.939 44.6684 194.325 44.5123C192.83 44.1357 186.631 43.1781 183.693 45.377L183.605 45.4374C180.932 47.4317 180.217 47.9664 178.909 61.3364Z" fill="#263238"/>
<path d="M174.356 71.0759C174.597 72.8006 178.068 76.3988 179.818 77.2309C180.175 77.3983 183.192 78.2444 183.419 76.9148C183.438 76.8258 183.452 76.7358 183.461 76.6452C183.957 73.1632 183.122 65.488 182.867 64.4606C182.561 63.238 179.252 60.7648 177.215 60.1791C176.859 60.0501 176.476 60.0211 176.105 60.0954C174.551 60.5742 174.212 69.9834 174.356 71.0759Z" fill="#455A64"/>
<path d="M174.356 71.0759C174.597 72.8006 178.068 76.3988 179.818 77.2309C180.175 77.3983 183.192 78.2444 183.419 76.9148C183.438 76.8258 183.452 76.7358 183.461 76.6452C181.219 76.3198 178.152 75.0367 177.001 72.0847C175.906 69.2954 176.625 63.4472 177.215 60.1791C176.859 60.0501 176.476 60.0211 176.105 60.0954C174.551 60.5742 174.212 69.9834 174.356 71.0759Z" fill="#37474F"/>
<path d="M206.743 56.0135C210.989 56.7991 210.562 62.2801 208.274 63.8839C202.9 67.6448 194.246 69.8111 188.361 70.5038C186.463 70.727 184.329 58.0403 186.292 57.4871C188.645 56.8177 198.427 54.4747 206.743 56.0135Z" fill="#EB9481"/>
<path d="M186.667 56.5205L190.189 72.7589C190.189 72.7589 205.619 67.343 209.248 63.0242C212.678 58.9472 208.654 56.0231 205.61 55.2142C201.396 54.0892 186.667 56.5205 186.667 56.5205Z" fill="#F08080"/>
<path d="M204.158 55.1255C203.833 55.1255 203.513 55.1255 203.193 55.1255C202.538 55.1255 201.884 55.1255 201.23 55.1255C199.907 55.158 198.584 55.2045 197.266 55.2975C194.631 55.4788 187.461 56.5341 186.728 56.6224C186.691 56.6224 186.602 56.4829 186.783 56.4271C186.872 56.3853 191.494 55.5439 192.816 55.3672C195.449 55.0087 198.103 54.8239 200.761 54.814H200.891L201.16 54.721C201.384 54.6546 201.612 54.6018 201.842 54.563C202.302 54.4867 202.768 54.4571 203.234 54.4746C203.239 54.4768 203.243 54.4804 203.246 54.4849C203.249 54.4895 203.251 54.4948 203.251 54.5002C203.251 54.5056 203.249 54.5109 203.246 54.5155C203.243 54.52 203.239 54.5236 203.234 54.5258C202.765 54.5545 202.3 54.6229 201.842 54.7303L201.378 54.8186L202.998 54.8698C203.374 54.8698 203.74 54.9023 204.111 54.9349C204.483 54.9674 204.84 54.9767 205.193 55.0418C205.22 55.0418 205.216 55.0883 205.193 55.0929C204.84 55.1627 204.487 55.1208 204.158 55.1255Z" fill="#263238"/>
<path d="M191.726 62.6289C192.088 64.3862 192.468 66.1434 192.761 67.9193C192.928 68.9281 193.099 69.9415 193.257 70.9503C193.257 70.9875 193.197 71.0107 193.188 70.9503C192.751 69.2023 192.32 67.4497 191.967 65.6785C191.614 63.9073 191.253 62.1547 190.923 60.3882C190.737 59.3794 190.584 58.3706 190.459 57.3478C190.459 57.3478 190.491 57.32 190.496 57.3478C190.993 59.0912 191.382 60.8577 191.726 62.6289Z" fill="#263238"/>
<path d="M179.781 65.6415C181.317 66.3899 184.542 79.0162 182.032 79.0208C170.221 79.0626 162.467 73.9954 160.773 72.3823C158.555 70.2717 159.427 66.5434 161.001 65.2975C163.251 63.4891 178.24 64.8977 179.781 65.6415Z" fill="#EB9481"/>
<path d="M197.346 67.8861C197.438 68.3004 197.402 68.7332 197.242 69.1264C197.082 69.5195 196.806 69.854 196.45 70.085C196.965 70.5782 197.293 71.2356 197.378 71.9445C197.471 73.209 195.522 73.911 195.522 73.911C195.956 74.5397 196.192 75.2847 196.199 76.0494C196.167 77.2721 194.306 78.2576 194.306 78.2576C194.389 79.0546 194.184 79.855 193.726 80.5123C192.431 82.2184 189.178 81.9069 187.108 81.7535C185.039 81.6001 179.322 79.1688 178.189 78.8201L179.145 65.5013C179.145 65.5013 188.644 63.6092 191.048 64.1485C193.099 64.6226 196.951 66.3195 197.346 67.8861Z" fill="#EB9481"/>
<path d="M196.376 69.8624C194.334 68.8582 192.111 68.5142 189.911 68.04C189.865 68.04 189.846 68.1098 189.911 68.1191C192.102 68.5607 194.181 69.4347 196.353 69.9786C196.399 69.9832 196.427 69.8903 196.376 69.8624Z" fill="#263238"/>
<path d="M195.513 73.7579C195.027 73.5748 194.52 73.456 194.004 73.4046C193.463 73.3178 192.92 73.2388 192.375 73.1675C191.285 73.028 190.194 72.9118 189.099 72.8281C189.048 72.8281 189.03 72.8979 189.099 72.9072C190.185 73.0466 191.271 73.2047 192.348 73.372C192.891 73.465 193.429 73.5626 193.967 73.6649C194.468 73.7929 194.982 73.8661 195.499 73.8834C195.509 73.8772 195.518 73.8686 195.525 73.8583C195.531 73.848 195.535 73.8363 195.537 73.8241C195.538 73.812 195.537 73.7996 195.532 73.7881C195.528 73.7766 195.521 73.7663 195.513 73.7579Z" fill="#263238"/>
<path d="M194.283 78.2674C193.837 78.1035 193.365 78.0201 192.89 78.021L191.401 77.849C190.403 77.7328 189.41 77.6119 188.422 77.4585C188.371 77.4585 188.357 77.5282 188.422 77.5375C189.429 77.6956 190.431 77.8722 191.438 78.0024C191.93 78.0814 192.426 78.1512 192.918 78.2209C193.365 78.3267 193.827 78.3518 194.283 78.2953C194.286 78.2913 194.287 78.2864 194.287 78.2813C194.287 78.2763 194.286 78.2714 194.283 78.2674Z" fill="#263238"/>
<path d="M178.222 64.9253L176.096 80.4895C176.096 80.4895 162.054 76.6636 159.678 71.0478C158.1 67.3287 160.369 65.5389 161.256 65.0322C162.42 64.3814 168.908 63.6004 178.222 64.9253Z" fill="#F08080"/>
<path d="M165.154 64.1672C171.437 63.4978 178.101 64.9017 178.115 64.9017C178.235 64.9017 178.235 65.0738 178.17 65.0645C173.854 64.4146 169.489 64.1471 165.126 64.2649C165.084 64.2649 165.107 64.1719 165.154 64.1672Z" fill="#263238"/>
<path d="M172.644 78.7696C172.787 77.3749 173.326 73.2932 173.511 72.2101C173.887 70.0112 174.231 67.789 174.778 65.6227C174.778 65.5808 174.862 65.5808 174.857 65.6227C174.685 67.8169 174.319 70.0065 173.985 72.1775C173.813 73.2654 172.908 78.221 172.713 78.7696C172.699 78.8114 172.644 78.8114 172.644 78.7696Z" fill="#263238"/>
</svg>
