<svg width="18" height="18" viewBox="0 0 18 18" fill="none" xmlns="http://www.w3.org/2000/svg">
<path d="M9 9.18769C8.67 9.18769 8.34 9.10519 8.04 8.94769L3.1575 6.3152C2.715 6.0752 2.4375 5.60269 2.4375 5.0777C2.4375 4.5527 2.715 4.0802 3.1575 3.8402L8.04 1.2077C8.64 0.885195 9.36 0.885195 9.9525 1.2077L14.835 3.8402C15.2775 4.0802 15.555 4.5527 15.555 5.0777C15.555 5.60269 15.2775 6.0752 14.835 6.3152L9.9525 8.94769C9.66 9.11269 9.33 9.18769 9 9.18769ZM9 2.0852C8.8575 2.0852 8.7075 2.1227 8.5725 2.1977L3.6975 4.82269C3.57 4.89019 3.5625 5.0327 3.5625 5.0777C3.5625 5.1227 3.57 5.26519 3.6975 5.32519L8.58 7.95769C8.85 8.10019 9.1575 8.10019 9.4275 7.95769L14.31 5.32519C14.43 5.25769 14.445 5.1152 14.445 5.0777C14.445 5.0327 14.4375 4.8902 14.31 4.8302L9.4275 2.1977C9.2925 2.1227 9.1425 2.0852 9 2.0852Z" fill="#8B8B8B"/>
<path d="M7.335 17.0398C7.125 17.0398 6.9075 16.9873 6.7125 16.8898L2.1675 14.6248C1.41 14.2423 0.9375 13.4773 0.9375 12.6298V8.33983C0.9375 7.85233 1.185 7.40983 1.5975 7.15483C2.0175 6.89983 2.52 6.87733 2.955 7.09483L7.5 9.35983C8.2575 9.74233 8.73 10.4998 8.73 11.3548V15.6448C8.73 16.1323 8.4825 16.5748 8.07 16.8298C7.845 16.9723 7.59 17.0398 7.335 17.0398ZM2.3325 8.06983C2.2725 8.06983 2.22 8.09233 2.19 8.10733C2.145 8.13733 2.0625 8.20483 2.0625 8.33983V12.6298C2.0625 13.0498 2.295 13.4323 2.67 13.6198L7.2075 15.8923C7.3275 15.9523 7.425 15.9073 7.47 15.8848C7.515 15.8548 7.5975 15.7873 7.5975 15.6523V11.3623C7.5975 10.9423 7.365 10.5598 6.99 10.3723L2.4525 8.09983C2.4075 8.07733 2.37 8.06983 2.3325 8.06983Z" fill="#8B8B8B"/>
<path d="M10.6645 17.04C10.4095 17.04 10.1545 16.9725 9.92953 16.83C9.51703 16.575 9.26953 16.1325 9.26953 15.645V11.355C9.26953 10.5075 9.74203 9.7425 10.4995 9.36L15.037 7.0875C15.472 6.87 15.982 6.8925 16.3945 7.1475C16.807 7.4025 17.0545 7.845 17.0545 8.3325V12.6225C17.0545 13.47 16.582 14.235 15.8245 14.6175L11.287 16.89C11.092 16.995 10.8745 17.04 10.6645 17.04ZM15.667 8.07C15.6295 8.07 15.592 8.0775 15.547 8.1L11.0095 10.3725C10.6345 10.56 10.402 10.935 10.402 11.3625V15.6525C10.402 15.7875 10.4845 15.855 10.5295 15.885C10.5745 15.915 10.672 15.9525 10.792 15.8925L15.3295 13.62C15.7045 13.4325 15.937 13.05 15.937 12.63V8.34C15.937 8.205 15.8545 8.1375 15.8095 8.1075C15.7795 8.0925 15.727 8.07 15.667 8.07Z" fill="#8B8B8B"/>
</svg>
