<svg width="358" height="222" viewBox="0 0 358 222" fill="none" xmlns="http://www.w3.org/2000/svg">
<rect x="0.5" y="0.5" width="357" height="221" rx="11.5" fill="#FAF7F8" fill-opacity="0.3"/>
<rect x="0.5" y="0.5" width="357" height="221" rx="11.5" stroke="#9E0000" stroke-dasharray="5 5"/>
<path d="M209.074 82.4993C209.074 98.832 195.832 112.074 179.499 112.074C163.166 112.074 149.924 98.832 149.924 82.4993C149.924 66.1666 163.166 52.9243 179.499 52.9243C195.832 52.9243 209.074 66.1666 209.074 82.4993Z" fill="#FCE6E6"/>
<path d="M193.535 70.5875V101.09C193.535 102.024 192.779 102.78 191.845 102.78H167.157C166.223 102.78 165.467 102.024 165.467 101.09V63.9102C165.467 62.9766 166.223 62.2202 167.157 62.2202H185.168L193.535 70.5875Z" fill="white"/>
<path d="M181.904 69.7656H168.738V71.4556H181.904V69.7656Z" fill="#696969"/>
<path d="M181.904 65.5991H168.738V67.2891H181.904V65.5991Z" fill="#696969"/>
<path d="M190.527 73.9316H168.475V75.6216H190.527V73.9316Z" fill="#696969"/>
<path d="M193.533 70.5875H186.856C185.922 70.5875 185.166 69.8311 185.166 68.8975V62.2202L193.533 70.5875Z" fill="#FFFAFB"/>
<path d="M186.673 86.4119H183.033V99.4001H175.96V86.4119H172.326L179.5 79.2383L186.673 86.4119Z" fill="#696969"/>
<path d="M103.312 129.832V136.744C103.312 137.501 103.509 138.083 103.904 138.488C104.299 138.883 104.853 139.08 105.568 139.08C106.293 139.08 106.853 138.883 107.248 138.488C107.643 138.083 107.84 137.501 107.84 136.744V129.832H110.096V136.728C110.096 137.677 109.888 138.483 109.472 139.144C109.067 139.795 108.517 140.285 107.824 140.616C107.141 140.947 106.379 141.112 105.536 141.112C104.704 141.112 103.947 140.947 103.264 140.616C102.592 140.285 102.059 139.795 101.664 139.144C101.269 138.483 101.072 137.677 101.072 136.728V129.832H103.312ZM114.5 133.416C114.788 133.011 115.183 132.675 115.684 132.408C116.196 132.131 116.778 131.992 117.428 131.992C118.186 131.992 118.868 132.179 119.476 132.552C120.095 132.925 120.58 133.459 120.932 134.152C121.295 134.835 121.476 135.629 121.476 136.536C121.476 137.443 121.295 138.248 120.932 138.952C120.58 139.645 120.095 140.184 119.476 140.568C118.868 140.952 118.186 141.144 117.428 141.144C116.778 141.144 116.202 141.011 115.7 140.744C115.21 140.477 114.81 140.141 114.5 139.736V145.224H112.26V132.136H114.5V133.416ZM119.188 136.536C119.188 136.003 119.076 135.544 118.852 135.16C118.639 134.765 118.351 134.467 117.988 134.264C117.636 134.061 117.252 133.96 116.836 133.96C116.431 133.96 116.047 134.067 115.684 134.28C115.332 134.483 115.044 134.781 114.82 135.176C114.607 135.571 114.5 136.035 114.5 136.568C114.5 137.101 114.607 137.565 114.82 137.96C115.044 138.355 115.332 138.659 115.684 138.872C116.047 139.075 116.431 139.176 116.836 139.176C117.252 139.176 117.636 139.069 117.988 138.856C118.351 138.643 118.639 138.339 118.852 137.944C119.076 137.549 119.188 137.08 119.188 136.536ZM125.344 129.16V141H123.104V129.16H125.344ZM131.493 141.144C130.64 141.144 129.872 140.957 129.189 140.584C128.506 140.2 127.968 139.661 127.573 138.968C127.189 138.275 126.997 137.475 126.997 136.568C126.997 135.661 127.194 134.861 127.589 134.168C127.994 133.475 128.544 132.941 129.237 132.568C129.93 132.184 130.704 131.992 131.557 131.992C132.41 131.992 133.184 132.184 133.877 132.568C134.57 132.941 135.114 133.475 135.509 134.168C135.914 134.861 136.117 135.661 136.117 136.568C136.117 137.475 135.909 138.275 135.493 138.968C135.088 139.661 134.533 140.2 133.829 140.584C133.136 140.957 132.357 141.144 131.493 141.144ZM131.493 139.192C131.898 139.192 132.277 139.096 132.629 138.904C132.992 138.701 133.28 138.403 133.493 138.008C133.706 137.613 133.813 137.133 133.813 136.568C133.813 135.725 133.589 135.08 133.141 134.632C132.704 134.173 132.165 133.944 131.525 133.944C130.885 133.944 130.346 134.173 129.909 134.632C129.482 135.08 129.269 135.725 129.269 136.568C129.269 137.411 129.477 138.061 129.893 138.52C130.32 138.968 130.853 139.192 131.493 139.192ZM137.184 136.536C137.184 135.64 137.36 134.845 137.712 134.152C138.075 133.459 138.56 132.925 139.168 132.552C139.787 132.179 140.475 131.992 141.232 131.992C141.894 131.992 142.47 132.125 142.96 132.392C143.462 132.659 143.862 132.995 144.16 133.4V132.136H146.416V141H144.16V139.704C143.872 140.12 143.472 140.467 142.96 140.744C142.459 141.011 141.878 141.144 141.216 141.144C140.47 141.144 139.787 140.952 139.168 140.568C138.56 140.184 138.075 139.645 137.712 138.952C137.36 138.248 137.184 137.443 137.184 136.536ZM144.16 136.568C144.16 136.024 144.054 135.56 143.84 135.176C143.627 134.781 143.339 134.483 142.976 134.28C142.614 134.067 142.224 133.96 141.808 133.96C141.392 133.96 141.008 134.061 140.656 134.264C140.304 134.467 140.016 134.765 139.792 135.16C139.579 135.544 139.472 136.003 139.472 136.536C139.472 137.069 139.579 137.539 139.792 137.944C140.016 138.339 140.304 138.643 140.656 138.856C141.019 139.069 141.403 139.176 141.808 139.176C142.224 139.176 142.614 139.075 142.976 138.872C143.339 138.659 143.627 138.36 143.84 137.976C144.054 137.581 144.16 137.112 144.16 136.568ZM148.028 136.536C148.028 135.64 148.204 134.845 148.556 134.152C148.919 133.459 149.409 132.925 150.028 132.552C150.647 132.179 151.335 131.992 152.092 131.992C152.668 131.992 153.217 132.12 153.74 132.376C154.263 132.621 154.679 132.952 154.988 133.368V129.16H157.26V141H154.988V139.688C154.711 140.125 154.321 140.477 153.82 140.744C153.319 141.011 152.737 141.144 152.076 141.144C151.329 141.144 150.647 140.952 150.028 140.568C149.409 140.184 148.919 139.645 148.556 138.952C148.204 138.248 148.028 137.443 148.028 136.536ZM155.004 136.568C155.004 136.024 154.897 135.56 154.684 135.176C154.471 134.781 154.183 134.483 153.82 134.28C153.457 134.067 153.068 133.96 152.652 133.96C152.236 133.96 151.852 134.061 151.5 134.264C151.148 134.467 150.86 134.765 150.636 135.16C150.423 135.544 150.316 136.003 150.316 136.536C150.316 137.069 150.423 137.539 150.636 137.944C150.86 138.339 151.148 138.643 151.5 138.856C151.863 139.069 152.247 139.176 152.652 139.176C153.068 139.176 153.457 139.075 153.82 138.872C154.183 138.659 154.471 138.36 154.684 137.976C154.897 137.581 155.004 137.112 155.004 136.568ZM171.74 132.136L166.252 145.192H163.868L165.788 140.776L162.236 132.136H164.748L167.036 138.328L169.356 132.136H171.74ZM176.884 141.144C176.03 141.144 175.262 140.957 174.58 140.584C173.897 140.2 173.358 139.661 172.964 138.968C172.58 138.275 172.388 137.475 172.388 136.568C172.388 135.661 172.585 134.861 172.98 134.168C173.385 133.475 173.934 132.941 174.628 132.568C175.321 132.184 176.094 131.992 176.948 131.992C177.801 131.992 178.574 132.184 179.268 132.568C179.961 132.941 180.505 133.475 180.9 134.168C181.305 134.861 181.508 135.661 181.508 136.568C181.508 137.475 181.3 138.275 180.884 138.968C180.478 139.661 179.924 140.2 179.22 140.584C178.526 140.957 177.748 141.144 176.884 141.144ZM176.884 139.192C177.289 139.192 177.668 139.096 178.02 138.904C178.382 138.701 178.67 138.403 178.884 138.008C179.097 137.613 179.204 137.133 179.204 136.568C179.204 135.725 178.98 135.08 178.532 134.632C178.094 134.173 177.556 133.944 176.916 133.944C176.276 133.944 175.737 134.173 175.3 134.632C174.873 135.08 174.66 135.725 174.66 136.568C174.66 137.411 174.868 138.061 175.284 138.52C175.71 138.968 176.244 139.192 176.884 139.192ZM191.519 132.136V141H189.263V139.88C188.975 140.264 188.596 140.568 188.127 140.792C187.668 141.005 187.167 141.112 186.623 141.112C185.93 141.112 185.316 140.968 184.783 140.68C184.25 140.381 183.828 139.949 183.519 139.384C183.22 138.808 183.071 138.125 183.071 137.336V132.136H185.311V137.016C185.311 137.72 185.487 138.264 185.839 138.648C186.191 139.021 186.671 139.208 187.279 139.208C187.898 139.208 188.383 139.021 188.735 138.648C189.087 138.264 189.263 137.72 189.263 137.016V132.136H191.519ZM195.969 133.512C196.257 133.043 196.63 132.675 197.089 132.408C197.558 132.141 198.092 132.008 198.689 132.008V134.36H198.097C197.393 134.36 196.86 134.525 196.497 134.856C196.145 135.187 195.969 135.763 195.969 136.584V141H193.729V132.136H195.969V133.512ZM206.25 129.832V141H204.01V129.832H206.25ZM219.471 132.008C220.559 132.008 221.434 132.344 222.095 133.016C222.767 133.677 223.103 134.605 223.103 135.8V141H220.863V136.104C220.863 135.411 220.687 134.883 220.335 134.52C219.983 134.147 219.503 133.96 218.895 133.96C218.287 133.96 217.802 134.147 217.439 134.52C217.087 134.883 216.911 135.411 216.911 136.104V141H214.671V136.104C214.671 135.411 214.495 134.883 214.143 134.52C213.791 134.147 213.311 133.96 212.703 133.96C212.085 133.96 211.594 134.147 211.231 134.52C210.879 134.883 210.703 135.411 210.703 136.104V141H208.463V132.136H210.703V133.208C210.991 132.835 211.359 132.541 211.807 132.328C212.266 132.115 212.767 132.008 213.311 132.008C214.005 132.008 214.623 132.157 215.167 132.456C215.711 132.744 216.133 133.16 216.431 133.704C216.719 133.192 217.135 132.781 217.679 132.472C218.234 132.163 218.831 132.008 219.471 132.008ZM224.653 136.536C224.653 135.64 224.829 134.845 225.181 134.152C225.544 133.459 226.029 132.925 226.637 132.552C227.256 132.179 227.944 131.992 228.701 131.992C229.362 131.992 229.938 132.125 230.429 132.392C230.93 132.659 231.33 132.995 231.629 133.4V132.136H233.885V141H231.629V139.704C231.341 140.12 230.941 140.467 230.429 140.744C229.928 141.011 229.346 141.144 228.685 141.144C227.938 141.144 227.256 140.952 226.637 140.568C226.029 140.184 225.544 139.645 225.181 138.952C224.829 138.248 224.653 137.443 224.653 136.536ZM231.629 136.568C231.629 136.024 231.522 135.56 231.309 135.176C231.096 134.781 230.808 134.483 230.445 134.28C230.082 134.067 229.693 133.96 229.277 133.96C228.861 133.96 228.477 134.061 228.125 134.264C227.773 134.467 227.485 134.765 227.261 135.16C227.048 135.544 226.941 136.003 226.941 136.536C226.941 137.069 227.048 137.539 227.261 137.944C227.485 138.339 227.773 138.643 228.125 138.856C228.488 139.069 228.872 139.176 229.277 139.176C229.693 139.176 230.082 139.075 230.445 138.872C230.808 138.659 231.096 138.36 231.309 137.976C231.522 137.581 231.629 137.112 231.629 136.568ZM239.545 131.992C240.206 131.992 240.787 132.125 241.289 132.392C241.79 132.648 242.185 132.984 242.473 133.4V132.136H244.729V141.064C244.729 141.885 244.563 142.616 244.233 143.256C243.902 143.907 243.406 144.419 242.745 144.792C242.083 145.176 241.283 145.368 240.345 145.368C239.086 145.368 238.051 145.075 237.241 144.488C236.441 143.901 235.987 143.101 235.881 142.088H238.105C238.222 142.493 238.473 142.813 238.857 143.048C239.251 143.293 239.726 143.416 240.281 143.416C240.931 143.416 241.459 143.219 241.865 142.824C242.27 142.44 242.473 141.853 242.473 141.064V139.688C242.185 140.104 241.785 140.451 241.273 140.728C240.771 141.005 240.195 141.144 239.545 141.144C238.798 141.144 238.115 140.952 237.497 140.568C236.878 140.184 236.387 139.645 236.025 138.952C235.673 138.248 235.497 137.443 235.497 136.536C235.497 135.64 235.673 134.845 236.025 134.152C236.387 133.459 236.873 132.925 237.481 132.552C238.099 132.179 238.787 131.992 239.545 131.992ZM242.473 136.568C242.473 136.024 242.366 135.56 242.153 135.176C241.939 134.781 241.651 134.483 241.289 134.28C240.926 134.067 240.537 133.96 240.121 133.96C239.705 133.96 239.321 134.061 238.969 134.264C238.617 134.467 238.329 134.765 238.105 135.16C237.891 135.544 237.785 136.003 237.785 136.536C237.785 137.069 237.891 137.539 238.105 137.944C238.329 138.339 238.617 138.643 238.969 138.856C239.331 139.069 239.715 139.176 240.121 139.176C240.537 139.176 240.926 139.075 241.289 138.872C241.651 138.659 241.939 138.36 242.153 137.976C242.366 137.581 242.473 137.112 242.473 136.568ZM255.157 136.376C255.157 136.696 255.135 136.984 255.093 137.24H248.613C248.666 137.88 248.89 138.381 249.285 138.744C249.679 139.107 250.165 139.288 250.741 139.288C251.573 139.288 252.165 138.931 252.517 138.216H254.933C254.677 139.069 254.186 139.773 253.461 140.328C252.735 140.872 251.845 141.144 250.789 141.144C249.935 141.144 249.167 140.957 248.485 140.584C247.813 140.2 247.285 139.661 246.901 138.968C246.527 138.275 246.34 137.475 246.34 136.568C246.34 135.651 246.527 134.845 246.901 134.152C247.274 133.459 247.797 132.925 248.469 132.552C249.141 132.179 249.914 131.992 250.789 131.992C251.631 131.992 252.383 132.173 253.045 132.536C253.717 132.899 254.234 133.416 254.597 134.088C254.97 134.749 255.157 135.512 255.157 136.376ZM252.837 135.736C252.826 135.16 252.618 134.701 252.213 134.36C251.807 134.008 251.311 133.832 250.725 133.832C250.17 133.832 249.701 134.003 249.317 134.344C248.943 134.675 248.714 135.139 248.629 135.736H252.837Z" fill="#2A2A2A"/>
<path d="M124.359 168.084C123.807 168.084 123.311 167.988 122.871 167.796C122.439 167.596 122.099 167.324 121.851 166.98C121.603 166.628 121.475 166.224 121.467 165.768H122.631C122.671 166.16 122.831 166.492 123.111 166.764C123.399 167.028 123.815 167.16 124.359 167.16C124.879 167.16 125.287 167.032 125.583 166.776C125.887 166.512 126.039 166.176 126.039 165.768C126.039 165.448 125.951 165.188 125.775 164.988C125.599 164.788 125.379 164.636 125.115 164.532C124.851 164.428 124.495 164.316 124.047 164.196C123.495 164.052 123.051 163.908 122.715 163.764C122.387 163.62 122.103 163.396 121.863 163.092C121.631 162.78 121.515 162.364 121.515 161.844C121.515 161.388 121.631 160.984 121.863 160.632C122.095 160.28 122.419 160.008 122.835 159.816C123.259 159.624 123.743 159.528 124.287 159.528C125.071 159.528 125.711 159.724 126.207 160.116C126.711 160.508 126.995 161.028 127.059 161.676H125.859C125.819 161.356 125.651 161.076 125.355 160.836C125.059 160.588 124.667 160.464 124.179 160.464C123.723 160.464 123.351 160.584 123.063 160.824C122.775 161.056 122.631 161.384 122.631 161.808C122.631 162.112 122.715 162.36 122.883 162.552C123.059 162.744 123.271 162.892 123.519 162.996C123.775 163.092 124.131 163.204 124.587 163.332C125.139 163.484 125.583 163.636 125.919 163.788C126.255 163.932 126.543 164.16 126.783 164.472C127.023 164.776 127.143 165.192 127.143 165.72C127.143 166.128 127.035 166.512 126.819 166.872C126.603 167.232 126.283 167.524 125.859 167.748C125.435 167.972 124.935 168.084 124.359 168.084ZM134.582 161.424V168H133.49V167.028C133.282 167.364 132.99 167.628 132.614 167.82C132.246 168.004 131.838 168.096 131.39 168.096C130.878 168.096 130.418 167.992 130.01 167.784C129.602 167.568 129.278 167.248 129.038 166.824C128.806 166.4 128.69 165.884 128.69 165.276V161.424H129.77V165.132C129.77 165.78 129.934 166.28 130.262 166.632C130.59 166.976 131.038 167.148 131.606 167.148C132.19 167.148 132.65 166.968 132.986 166.608C133.322 166.248 133.49 165.724 133.49 165.036V161.424H134.582ZM137.518 162.636C137.734 162.26 138.054 161.948 138.478 161.7C138.91 161.444 139.41 161.316 139.978 161.316C140.562 161.316 141.09 161.456 141.562 161.736C142.042 162.016 142.418 162.412 142.69 162.924C142.962 163.428 143.098 164.016 143.098 164.688C143.098 165.352 142.962 165.944 142.69 166.464C142.418 166.984 142.042 167.388 141.562 167.676C141.09 167.964 140.562 168.108 139.978 168.108C139.418 168.108 138.922 167.984 138.49 167.736C138.066 167.48 137.742 167.164 137.518 166.788V171.12H136.426V161.424H137.518V162.636ZM141.982 164.688C141.982 164.192 141.882 163.76 141.682 163.392C141.482 163.024 141.21 162.744 140.866 162.552C140.53 162.36 140.158 162.264 139.75 162.264C139.35 162.264 138.978 162.364 138.634 162.564C138.298 162.756 138.026 163.04 137.818 163.416C137.618 163.784 137.518 164.212 137.518 164.7C137.518 165.196 137.618 165.632 137.818 166.008C138.026 166.376 138.298 166.66 138.634 166.86C138.978 167.052 139.35 167.148 139.75 167.148C140.158 167.148 140.53 167.052 140.866 166.86C141.21 166.66 141.482 166.376 141.682 166.008C141.882 165.632 141.982 165.192 141.982 164.688ZM145.627 162.636C145.843 162.26 146.163 161.948 146.587 161.7C147.019 161.444 147.519 161.316 148.087 161.316C148.671 161.316 149.199 161.456 149.671 161.736C150.151 162.016 150.527 162.412 150.799 162.924C151.071 163.428 151.207 164.016 151.207 164.688C151.207 165.352 151.071 165.944 150.799 166.464C150.527 166.984 150.151 167.388 149.671 167.676C149.199 167.964 148.671 168.108 148.087 168.108C147.527 168.108 147.031 167.984 146.599 167.736C146.175 167.48 145.851 167.164 145.627 166.788V171.12H144.535V161.424H145.627V162.636ZM150.091 164.688C150.091 164.192 149.991 163.76 149.791 163.392C149.591 163.024 149.319 162.744 148.975 162.552C148.639 162.36 148.267 162.264 147.859 162.264C147.459 162.264 147.087 162.364 146.743 162.564C146.407 162.756 146.135 163.04 145.927 163.416C145.727 163.784 145.627 164.212 145.627 164.7C145.627 165.196 145.727 165.632 145.927 166.008C146.135 166.376 146.407 166.66 146.743 166.86C147.087 167.052 147.459 167.148 147.859 167.148C148.267 167.148 148.639 167.052 148.975 166.86C149.319 166.66 149.591 166.376 149.791 166.008C149.991 165.632 150.091 165.192 150.091 164.688ZM155.513 168.108C154.897 168.108 154.337 167.968 153.833 167.688C153.337 167.408 152.945 167.012 152.657 166.5C152.377 165.98 152.237 165.38 152.237 164.7C152.237 164.028 152.381 163.436 152.669 162.924C152.965 162.404 153.365 162.008 153.869 161.736C154.373 161.456 154.937 161.316 155.561 161.316C156.185 161.316 156.749 161.456 157.253 161.736C157.757 162.008 158.153 162.4 158.441 162.912C158.737 163.424 158.885 164.02 158.885 164.7C158.885 165.38 158.733 165.98 158.429 166.5C158.133 167.012 157.729 167.408 157.217 167.688C156.705 167.968 156.137 168.108 155.513 168.108ZM155.513 167.148C155.905 167.148 156.273 167.056 156.617 166.872C156.961 166.688 157.237 166.412 157.445 166.044C157.661 165.676 157.769 165.228 157.769 164.7C157.769 164.172 157.665 163.724 157.457 163.356C157.249 162.988 156.977 162.716 156.641 162.54C156.305 162.356 155.941 162.264 155.549 162.264C155.149 162.264 154.781 162.356 154.445 162.54C154.117 162.716 153.853 162.988 153.653 163.356C153.453 163.724 153.353 164.172 153.353 164.7C153.353 165.236 153.449 165.688 153.641 166.056C153.841 166.424 154.105 166.7 154.433 166.884C154.761 167.06 155.121 167.148 155.513 167.148ZM161.412 162.492C161.604 162.116 161.876 161.824 162.228 161.616C162.588 161.408 163.024 161.304 163.536 161.304V162.432H163.248C162.024 162.432 161.412 163.096 161.412 164.424V168H160.32V161.424H161.412V162.492ZM166.129 162.324V166.2C166.129 166.52 166.197 166.748 166.333 166.884C166.469 167.012 166.705 167.076 167.041 167.076H167.845V168H166.861C166.253 168 165.797 167.86 165.493 167.58C165.189 167.3 165.037 166.84 165.037 166.2V162.324H164.185V161.424H165.037V159.768H166.129V161.424H167.845V162.324H166.129ZM175.168 164.46C175.168 164.668 175.156 164.888 175.132 165.12H169.876C169.916 165.768 170.136 166.276 170.536 166.644C170.944 167.004 171.436 167.184 172.012 167.184C172.484 167.184 172.876 167.076 173.188 166.86C173.508 166.636 173.732 166.34 173.86 165.972H175.036C174.86 166.604 174.508 167.12 173.98 167.52C173.452 167.912 172.796 168.108 172.012 168.108C171.388 168.108 170.828 167.968 170.332 167.688C169.844 167.408 169.46 167.012 169.18 166.5C168.9 165.98 168.76 165.38 168.76 164.7C168.76 164.02 168.896 163.424 169.168 162.912C169.44 162.4 169.82 162.008 170.308 161.736C170.804 161.456 171.372 161.316 172.012 161.316C172.636 161.316 173.188 161.452 173.668 161.724C174.148 161.996 174.516 162.372 174.772 162.852C175.036 163.324 175.168 163.86 175.168 164.46ZM174.04 164.232C174.04 163.816 173.948 163.46 173.764 163.164C173.58 162.86 173.328 162.632 173.008 162.48C172.696 162.32 172.348 162.24 171.964 162.24C171.412 162.24 170.94 162.416 170.548 162.768C170.164 163.12 169.944 163.608 169.888 164.232H174.04ZM176.202 164.688C176.202 164.016 176.338 163.428 176.61 162.924C176.882 162.412 177.254 162.016 177.726 161.736C178.206 161.456 178.742 161.316 179.334 161.316C179.846 161.316 180.322 161.436 180.762 161.676C181.202 161.908 181.538 162.216 181.77 162.6V159.12H182.874V168H181.77V166.764C181.554 167.156 181.234 167.48 180.81 167.736C180.386 167.984 179.89 168.108 179.322 168.108C178.738 168.108 178.206 167.964 177.726 167.676C177.254 167.388 176.882 166.984 176.61 166.464C176.338 165.944 176.202 165.352 176.202 164.688ZM181.77 164.7C181.77 164.204 181.67 163.772 181.47 163.404C181.27 163.036 180.998 162.756 180.654 162.564C180.318 162.364 179.946 162.264 179.538 162.264C179.13 162.264 178.758 162.36 178.422 162.552C178.086 162.744 177.818 163.024 177.618 163.392C177.418 163.76 177.318 164.192 177.318 164.688C177.318 165.192 177.418 165.632 177.618 166.008C177.818 166.376 178.086 166.66 178.422 166.86C178.758 167.052 179.13 167.148 179.538 167.148C179.946 167.148 180.318 167.052 180.654 166.86C180.998 166.66 181.27 166.376 181.47 166.008C181.67 165.632 181.77 165.196 181.77 164.7ZM185.067 168.072C184.859 168.072 184.683 168 184.539 167.856C184.395 167.712 184.323 167.536 184.323 167.328C184.323 167.12 184.395 166.944 184.539 166.8C184.683 166.656 184.859 166.584 185.067 166.584C185.267 166.584 185.435 166.656 185.571 166.8C185.715 166.944 185.787 167.12 185.787 167.328C185.787 167.536 185.715 167.712 185.571 167.856C185.435 168 185.267 168.072 185.067 168.072ZM185.067 162.936C184.859 162.936 184.683 162.864 184.539 162.72C184.395 162.576 184.323 162.4 184.323 162.192C184.323 161.984 184.395 161.808 184.539 161.664C184.683 161.52 184.859 161.448 185.067 161.448C185.267 161.448 185.435 161.52 185.571 161.664C185.715 161.808 185.787 161.984 185.787 162.192C185.787 162.4 185.715 162.576 185.571 162.72C185.435 162.864 185.267 162.936 185.067 162.936ZM191.061 160.356C190.853 160.356 190.677 160.284 190.533 160.14C190.397 159.996 190.329 159.82 190.329 159.612C190.329 159.404 190.397 159.228 190.533 159.084C190.677 158.94 190.853 158.868 191.061 158.868C191.269 158.868 191.441 158.94 191.577 159.084C191.721 159.228 191.793 159.404 191.793 159.612C191.793 159.82 191.721 159.996 191.577 160.14C191.441 160.284 191.269 160.356 191.061 160.356ZM191.601 169.428C191.601 170.012 191.453 170.44 191.157 170.712C190.861 170.984 190.429 171.12 189.861 171.12H189.225V170.196H189.681C189.985 170.196 190.197 170.136 190.317 170.016C190.445 169.896 190.509 169.692 190.509 169.404V161.424H191.601V169.428ZM194.541 162.636C194.757 162.26 195.077 161.948 195.501 161.7C195.933 161.444 196.433 161.316 197.001 161.316C197.585 161.316 198.113 161.456 198.585 161.736C199.065 162.016 199.441 162.412 199.713 162.924C199.985 163.428 200.121 164.016 200.121 164.688C200.121 165.352 199.985 165.944 199.713 166.464C199.441 166.984 199.065 167.388 198.585 167.676C198.113 167.964 197.585 168.108 197.001 168.108C196.441 168.108 195.945 167.984 195.513 167.736C195.089 167.48 194.765 167.164 194.541 166.788V171.12H193.449V161.424H194.541V162.636ZM199.005 164.688C199.005 164.192 198.905 163.76 198.705 163.392C198.505 163.024 198.233 162.744 197.889 162.552C197.553 162.36 197.181 162.264 196.773 162.264C196.373 162.264 196.001 162.364 195.657 162.564C195.321 162.756 195.049 163.04 194.841 163.416C194.641 163.784 194.541 164.212 194.541 164.7C194.541 165.196 194.641 165.632 194.841 166.008C195.049 166.376 195.321 166.66 195.657 166.86C196.001 167.052 196.373 167.148 196.773 167.148C197.181 167.148 197.553 167.052 197.889 166.86C198.233 166.66 198.505 166.376 198.705 166.008C198.905 165.632 199.005 165.192 199.005 164.688ZM204.271 161.316C204.839 161.316 205.335 161.44 205.759 161.688C206.191 161.936 206.511 162.248 206.719 162.624V161.424H207.823V168.144C207.823 168.744 207.695 169.276 207.439 169.74C207.183 170.212 206.815 170.58 206.335 170.844C205.863 171.108 205.311 171.24 204.679 171.24C203.815 171.24 203.095 171.036 202.519 170.628C201.943 170.22 201.603 169.664 201.499 168.96H202.579C202.699 169.36 202.947 169.68 203.323 169.92C203.699 170.168 204.151 170.292 204.679 170.292C205.279 170.292 205.767 170.104 206.143 169.728C206.527 169.352 206.719 168.824 206.719 168.144V166.764C206.503 167.148 206.183 167.468 205.759 167.724C205.335 167.98 204.839 168.108 204.271 168.108C203.687 168.108 203.155 167.964 202.675 167.676C202.203 167.388 201.831 166.984 201.559 166.464C201.287 165.944 201.151 165.352 201.151 164.688C201.151 164.016 201.287 163.428 201.559 162.924C201.831 162.412 202.203 162.016 202.675 161.736C203.155 161.456 203.687 161.316 204.271 161.316ZM206.719 164.7C206.719 164.204 206.619 163.772 206.419 163.404C206.219 163.036 205.947 162.756 205.603 162.564C205.267 162.364 204.895 162.264 204.487 162.264C204.079 162.264 203.707 162.36 203.371 162.552C203.035 162.744 202.767 163.024 202.567 163.392C202.367 163.76 202.267 164.192 202.267 164.688C202.267 165.192 202.367 165.632 202.567 166.008C202.767 166.376 203.035 166.66 203.371 166.86C203.707 167.052 204.079 167.148 204.487 167.148C204.895 167.148 205.267 167.052 205.603 166.86C205.947 166.66 206.219 166.376 206.419 166.008C206.619 165.632 206.719 165.196 206.719 164.7ZM210.796 166.488L209.452 169.716H208.72L209.596 166.488H210.796ZM216.338 162.636C216.554 162.26 216.874 161.948 217.298 161.7C217.73 161.444 218.23 161.316 218.798 161.316C219.382 161.316 219.91 161.456 220.382 161.736C220.862 162.016 221.238 162.412 221.51 162.924C221.782 163.428 221.918 164.016 221.918 164.688C221.918 165.352 221.782 165.944 221.51 166.464C221.238 166.984 220.862 167.388 220.382 167.676C219.91 167.964 219.382 168.108 218.798 168.108C218.238 168.108 217.742 167.984 217.31 167.736C216.886 167.48 216.562 167.164 216.338 166.788V171.12H215.246V161.424H216.338V162.636ZM220.802 164.688C220.802 164.192 220.702 163.76 220.502 163.392C220.302 163.024 220.03 162.744 219.686 162.552C219.35 162.36 218.978 162.264 218.57 162.264C218.17 162.264 217.798 162.364 217.454 162.564C217.118 162.756 216.846 163.04 216.638 163.416C216.438 163.784 216.338 164.212 216.338 164.7C216.338 165.196 216.438 165.632 216.638 166.008C216.846 166.376 217.118 166.66 217.454 166.86C217.798 167.052 218.17 167.148 218.57 167.148C218.978 167.148 219.35 167.052 219.686 166.86C220.03 166.66 220.302 166.376 220.502 166.008C220.702 165.632 220.802 165.192 220.802 164.688ZM226.56 161.304C227.36 161.304 228.008 161.548 228.504 162.036C229 162.516 229.248 163.212 229.248 164.124V168H228.168V164.28C228.168 163.624 228.004 163.124 227.676 162.78C227.348 162.428 226.9 162.252 226.332 162.252C225.756 162.252 225.296 162.432 224.952 162.792C224.616 163.152 224.448 163.676 224.448 164.364V168H223.356V161.424H224.448V162.36C224.664 162.024 224.956 161.764 225.324 161.58C225.7 161.396 226.112 161.304 226.56 161.304ZM233.743 161.316C234.311 161.316 234.807 161.44 235.231 161.688C235.663 161.936 235.983 162.248 236.191 162.624V161.424H237.295V168.144C237.295 168.744 237.167 169.276 236.911 169.74C236.655 170.212 236.287 170.58 235.807 170.844C235.335 171.108 234.783 171.24 234.151 171.24C233.287 171.24 232.567 171.036 231.991 170.628C231.415 170.22 231.075 169.664 230.971 168.96H232.051C232.171 169.36 232.419 169.68 232.795 169.92C233.171 170.168 233.623 170.292 234.151 170.292C234.751 170.292 235.239 170.104 235.615 169.728C235.999 169.352 236.191 168.824 236.191 168.144V166.764C235.975 167.148 235.655 167.468 235.231 167.724C234.807 167.98 234.311 168.108 233.743 168.108C233.159 168.108 232.627 167.964 232.147 167.676C231.675 167.388 231.303 166.984 231.031 166.464C230.759 165.944 230.623 165.352 230.623 164.688C230.623 164.016 230.759 163.428 231.031 162.924C231.303 162.412 231.675 162.016 232.147 161.736C232.627 161.456 233.159 161.316 233.743 161.316ZM236.191 164.7C236.191 164.204 236.091 163.772 235.891 163.404C235.691 163.036 235.419 162.756 235.075 162.564C234.739 162.364 234.367 162.264 233.959 162.264C233.551 162.264 233.179 162.36 232.843 162.552C232.507 162.744 232.239 163.024 232.039 163.392C231.839 163.76 231.739 164.192 231.739 164.688C231.739 165.192 231.839 165.632 232.039 166.008C232.239 166.376 232.507 166.66 232.843 166.86C233.179 167.052 233.551 167.148 233.959 167.148C234.367 167.148 234.739 167.052 235.075 166.86C235.419 166.66 235.691 166.376 235.891 166.008C236.091 165.632 236.191 165.196 236.191 164.7Z" fill="#4C5563"/>
</svg>
